<?xml version="1.0" encoding="UTF-8"?>
<svg version="1.1" xmlns="http://www.w3.org/2000/svg" width="500" height="500">
<path d="M0 0 C1.20929169 -0.0033284 2.41858337 -0.0066568 3.66452026 -0.01008606 C6.21091332 -0.01512162 8.75731291 -0.01749543 11.30371094 -0.01733398 C15.14790035 -0.01951323 18.99179896 -0.03768579 22.8359375 -0.05664062 C35.73671171 -0.086222 48.29632805 0.16104576 61.0546875 2.16796875 C62.50227699 2.38296545 63.94995185 2.59738795 65.39770508 2.8112793 C87.82523665 6.19620276 111.49756229 13.80211074 130.78515625 25.76953125 C132.7026215 26.95103307 134.63493954 28.03915605 136.6171875 29.10546875 C141.10955141 31.65290335 145.05993201 34.91428981 149.0546875 38.16796875 C149.72242188 38.71066406 150.39015625 39.25335938 151.078125 39.8125 C154.12147214 42.34862261 156.9752874 44.74307446 159.0546875 48.16796875 C159.0546875 48.82796875 159.0546875 49.48796875 159.0546875 50.16796875 C159.7146875 50.16796875 160.3746875 50.16796875 161.0546875 50.16796875 C161.0546875 50.82796875 161.0546875 51.48796875 161.0546875 52.16796875 C161.7146875 52.16796875 162.3746875 52.16796875 163.0546875 52.16796875 C163.99914486 53.83070274 164.93486161 55.4984022 165.8671875 57.16796875 C166.38925781 58.09609375 166.91132813 59.02421875 167.44921875 59.98046875 C173.45692573 71.90817895 174.35535292 86.09083253 171.28125 99.16796875 C167.54674479 109.97419658 159.5726755 119.68791997 150.74609375 126.80078125 C149.00403094 128.14820193 149.00403094 128.14820193 147.45703125 129.84765625 C146.0546875 131.16796875 146.0546875 131.16796875 144.0546875 131.16796875 C144.0546875 131.82796875 144.0546875 132.48796875 144.0546875 133.16796875 C140.64257481 135.86698822 136.80462683 137.9736983 133.0546875 140.16796875 C132.41096191 140.55049805 131.76723633 140.93302734 131.10400391 141.32714844 C103.76439413 157.35135943 71.00685758 165.16507084 39.5546875 167.29296875 C38.32564697 167.37643555 37.09660645 167.45990234 35.83032227 167.54589844 C-4.29185735 170.11229332 -47.17342158 166.65703882 -83.9453125 149.16796875 C-84.55922852 148.87809082 -85.17314453 148.58821289 -85.80566406 148.28955078 C-98.32497504 142.33819315 -110.77769144 135.7621448 -120.9453125 126.16796875 C-120.9453125 125.50796875 -120.9453125 124.84796875 -120.9453125 124.16796875 C-121.6053125 124.16796875 -122.2653125 124.16796875 -122.9453125 124.16796875 C-122.9453125 123.50796875 -122.9453125 122.84796875 -122.9453125 122.16796875 C-123.6053125 122.16796875 -124.2653125 122.16796875 -124.9453125 122.16796875 C-124.9453125 121.50796875 -124.9453125 120.84796875 -124.9453125 120.16796875 C-125.6053125 120.16796875 -126.2653125 120.16796875 -126.9453125 120.16796875 C-136.19302639 109.21979361 -142.72055332 95.42504271 -142.2265625 80.9140625 C-140.65009831 65.52164136 -132.25742477 51.49437829 -120.9453125 41.16796875 C-120.2853125 41.16796875 -119.6253125 41.16796875 -118.9453125 41.16796875 C-118.9453125 40.50796875 -118.9453125 39.84796875 -118.9453125 39.16796875 C-117.0654966 37.50948601 -115.19220942 35.98711626 -113.1953125 34.48046875 C-112.60621094 34.03348633 -112.01710937 33.58650391 -111.41015625 33.12597656 C-90.39219372 17.45251735 -65.31073931 9.51018868 -39.9453125 4.16796875 C-39.18637695 4.008125 -38.42744141 3.84828125 -37.64550781 3.68359375 C-25.06658069 1.08376204 -12.83781026 0.01256814 0 0 Z " fill="#8BC24A" transform="translate(327.9453125,-0.16796875)"/>
<path d="M0 0 C0 0.66 0 1.32 0 2 C0.87785156 2.25265625 1.75570313 2.5053125 2.66015625 2.765625 C10.66473088 5.72404089 17.80001729 12.21334947 24 18 C24 18.66 24 19.32 24 20 C24.66 20 25.32 20 26 20 C26 20.66 26 21.32 26 22 C26.66 22 27.32 22 28 22 C30.57865911 25.15663442 32.76124194 28.59668618 35 32 C35.40992188 32.60585938 35.81984375 33.21171875 36.2421875 33.8359375 C43.14930322 44.8123617 43.60789649 58.85642862 41.4140625 71.33203125 C38.32479821 81.91772128 30.96073868 94.39735045 22 101 C21.34 101 20.68 101 20 101 C20 101.66 20 102.32 20 103 C12.16979669 109.91237728 3.151536 115.07141478 -6 120 C-7.24330078 120.69222656 -7.24330078 120.69222656 -8.51171875 121.3984375 C-16.29080069 125.54552023 -24.65953273 128.22449333 -33 131 C-34.10601562 131.37253906 -35.21203125 131.74507812 -36.3515625 132.12890625 C-58.20042593 139.18138748 -81.09521896 142.43826411 -104 143 C-104.78713379 143.02191406 -105.57426758 143.04382813 -106.38525391 143.06640625 C-151.55013529 144.16197645 -201.09259342 137.53518461 -239 111 C-239.80695313 110.43925781 -240.61390625 109.87851562 -241.4453125 109.30078125 C-245.52363232 106.36638041 -245.52363232 106.36638041 -247 105 C-247 104.34 -247 103.68 -247 103 C-247.87785156 102.87044922 -247.87785156 102.87044922 -248.7734375 102.73828125 C-251.61541184 101.79594239 -252.70702132 100.46457161 -254.625 98.1875 C-255.51058594 97.15689453 -255.51058594 97.15689453 -256.4140625 96.10546875 C-257.89910579 94.13394577 -258.98239206 92.24176008 -260 90 C-260.66 90 -261.32 90 -262 90 C-262.94445736 88.33726601 -263.88017411 86.66956655 -264.8125 85 C-265.33457031 84.071875 -265.85664063 83.14375 -266.39453125 82.1875 C-272.62492655 69.81766407 -272.95102221 55.69598917 -270.2265625 42.15625 C-267.20246156 34.17777093 -261.39955909 27.49634454 -256 21 C-255.56429687 20.44538086 -255.12859375 19.89076172 -254.6796875 19.31933594 C-251.33036679 15.11012226 -251.33036679 15.11012226 -248 14 C-247.34 13.29875 -246.68 12.5975 -246 11.875 C-241.9873766 7.70666285 -236.91051195 4.98092436 -232 2 C-231.11570313 1.43152344 -230.23140625 0.86304688 -229.3203125 0.27734375 C-166.55927208 -38.74828903 -63.21375052 -35.3497947 0 0 Z " fill="#8BC24A" transform="translate(271,233)"/>
<path d="M0 0 C0.99 0 1.98 0 3 0 C3.18433594 0.79921875 3.36867187 1.5984375 3.55859375 2.421875 C6.14089142 12.20017551 10.43182871 19.63987028 17.77734375 26.7109375 C19 28 19 28 19 30 C19.56203125 30.24621094 20.1240625 30.49242187 20.703125 30.74609375 C23.40362417 32.22034585 25.44029694 34.02895709 27.75 36.0625 C41.90038872 47.76992652 59.7051784 55.23505947 77 61 C78.57201172 61.52400391 78.57201172 61.52400391 80.17578125 62.05859375 C87.08233113 64.27420846 93.84887988 65.85038955 101 67 C102.86785156 67.35384766 102.86785156 67.35384766 104.7734375 67.71484375 C139.75933552 74.23812383 176.10556107 73.74719748 211 67 C212.08909668 66.79552246 212.08909668 66.79552246 213.20019531 66.58691406 C225.56341261 64.2255232 237.25418861 60.49775574 249 56 C249.68143066 55.73928711 250.36286133 55.47857422 251.06494141 55.20996094 C258.4132977 52.34822482 265.04723831 48.97611339 271.6015625 44.59375 C273.63494078 43.24258007 275.66813061 42.03614325 277.8125 40.875 C280.27754152 39.42497557 282.17599985 38.08862273 284.3125 36.25 C287 34 287 34 289 34 C289 33.34 289 32.68 289 32 C290.47692984 30.7528148 291.95797404 29.50964765 293.47265625 28.30859375 C295.29774071 26.74490246 296.57490087 24.92388382 298 23 C298.66 23 299.32 23 300 23 C300 22.01 300 21.02 300 20 C300.66 20 301.32 20 302 20 C302.37125 18.7625 302.37125 18.7625 302.75 17.5 C304.18924639 13.47011011 306.03583561 9.79286917 308 6 C308.5775 4.845 309.155 3.69 309.75 2.5 C310.1625 1.675 310.575 0.85 311 0 C312.98 0.99 312.98 0.99 315 2 C314.67 2.66 314.34 3.32 314 4 C313.8792315 6.64101645 313.81429697 9.26012116 313.7890625 11.90234375 C313.76095599 13.53191043 313.73229136 15.16146757 313.703125 16.79101562 C313.66216416 19.35131165 313.62527115 21.91143671 313.59863281 24.47192383 C313.45463713 37.21678305 313.10240073 48.57494187 305.5625 59.375 C304.98918945 60.23931641 304.98918945 60.23931641 304.40429688 61.12109375 C299.17405796 68.91761288 293.33801266 74.22567168 286 80 C284.60201172 81.13888672 284.60201172 81.13888672 283.17578125 82.30078125 C266.20650136 95.70489183 244.75924983 103.59468948 224 109 C223.31953613 109.18159668 222.63907227 109.36319336 221.93798828 109.55029297 C183.60426512 119.59505562 136.33683611 120.75358684 97.90795898 110.72705078 C95.27264588 110.06816719 92.65143111 109.53227691 89.98046875 109.04296875 C84.26864546 107.9343304 78.82008854 106.16902534 73.3125 104.3125 C72.25812744 103.95728271 71.20375488 103.60206543 70.11743164 103.23608398 C51.67668486 96.89897509 34.59131695 88.066851 20 75 C19.03513672 74.14148438 19.03513672 74.14148438 18.05078125 73.265625 C9.21822262 64.92927753 0.43125603 53.48739371 -0.08668518 40.89196777 C-0.11563552 38.29588405 -0.11230454 35.70167389 -0.09765625 33.10546875 C-0.0962413 32.15811356 -0.09482635 31.21075836 -0.09336853 30.23469543 C-0.08778611 27.21893105 -0.07523682 24.20324182 -0.0625 21.1875 C-0.05748273 19.13867295 -0.05292022 17.08984473 -0.04882812 15.04101562 C-0.03782243 10.02731494 -0.02056988 5.0136702 0 0 Z " fill="#8CC24C" transform="translate(0,322)"/>
<path d="M0 0 C0.66 0 1.32 0 2 0 C2.35191406 0.90621094 2.70382813 1.81242187 3.06640625 2.74609375 C5.90269648 9.7442511 8.67128224 15.56087046 13.6796875 21.328125 C15 23 15 23 15 25 C15.66 25 16.32 25 17 25 C18.26611328 26.34008789 18.26611328 26.34008789 19.6953125 28.16015625 C22.75049111 31.83542707 26.00897602 34.64990956 29.875 37.4375 C30.5148584 37.90414062 31.1547168 38.37078125 31.81396484 38.8515625 C37.7305463 43.03978501 43.98683558 46.27569701 50.5390625 49.34375 C53.48946523 50.75568088 56.20894056 52.3064419 59 54 C83.71981552 65.80231794 115.48408121 71.1358688 142.7109375 71.16796875 C144.22235825 71.17296135 144.22235825 71.17296135 145.76431274 71.17805481 C147.89055937 71.1830936 150.01681382 71.18546408 152.14306641 71.18530273 C155.33119447 71.18747022 158.51896508 71.20560635 161.70703125 71.22460938 C178.12969212 71.27109064 194.26737075 70.49123381 210.3125 66.75 C211.26125 66.53456543 212.21 66.31913086 213.1875 66.09716797 C216.12999186 65.41742125 219.06556208 64.71366313 222 64 C222.96470215 63.76764648 223.9294043 63.53529297 224.92333984 63.29589844 C237.00568772 60.33886531 247.94875738 56.73218659 259 51 C261.20810658 49.91620457 263.41642676 48.83284416 265.625 47.75 C268.4020989 46.36534004 271.06886205 44.95753176 273.7109375 43.328125 C276 42 276 42 278 42 C278 41.34 278 40.68 278 40 C279.58066374 38.77393383 281.21763517 37.62021335 282.875 36.5 C296.69333793 26.66532706 304.45649043 15.87013581 310 0 C310.66 0 311.32 0 312 0 C313.25741343 3.7722403 313.18182196 7.3222582 313.203125 11.25390625 C313.20882507 12.06939438 313.21452515 12.88488251 313.22039795 13.7250824 C313.22984528 15.4541596 313.23638087 17.18325479 313.24023438 18.91235352 C313.24987467 21.52848908 313.28087239 24.1438166 313.3125 26.75976562 C313.43432143 45.83446643 307.91214428 58.2036304 294.87890625 72.29296875 C293 74 293 74 291 74 C291 74.66 291 75.32 291 76 C279.84695224 85.99127195 265.74720508 93.30386671 252 99 C251.06800781 99.39574219 250.13601562 99.79148437 249.17578125 100.19921875 C235.61956295 105.70155064 221.40579922 109.51197872 207.0625 112.3125 C206.26005859 112.47177979 205.45761719 112.63105957 204.63085938 112.79516602 C189.70085939 115.54232234 174.49879233 115.18630863 159.37915039 115.18530273 C155.70642492 115.18748874 152.03400071 115.20569706 148.36132812 115.22460938 C135.75784824 115.25547935 123.45575261 114.99772672 111 113 C109.97382568 112.83894775 108.94765137 112.67789551 107.89038086 112.51196289 C81.41875929 108.01276186 54.17421918 99.52195343 32 84 C31.19304688 83.43925781 30.38609375 82.87851562 29.5546875 82.30078125 C25.47636768 79.36638041 25.47636768 79.36638041 24 78 C24 77.34 24 76.68 24 76 C23.40703125 75.90460938 22.8140625 75.80921875 22.203125 75.7109375 C14.51558713 73.23020719 7.2783231 60.23584783 3.640625 53.47265625 C0.36840729 46.34728363 -0.142533 40.08780835 -0.09765625 32.32421875 C-0.0962413 31.3990596 -0.09482635 30.47390045 -0.09336853 29.52070618 C-0.08778715 26.57627073 -0.07523805 23.63191233 -0.0625 20.6875 C-0.05748259 18.68685006 -0.05292011 16.68619892 -0.04882812 14.68554688 C-0.03782381 9.79033506 -0.02057198 4.89518058 0 0 Z " fill="#8CC24C" transform="translate(0,385)"/>
<path d="M0 0 C0.66 0 1.32 0 2 0 C2.268125 0.81082031 2.53625 1.62164062 2.8125 2.45703125 C5.41181471 9.80180538 8.49865811 15.63927737 13.328125 21.7578125 C15 24 15 24 16 27 C16.99 27.33 17.98 27.66 19 28 C20.68762851 29.6454378 22.3540349 31.31288577 24 33 C24.99 33.66 25.98 34.32 27 35 C27 35.66 27 36.32 27 37 C27.74636719 37.27585938 28.49273437 37.55171875 29.26171875 37.8359375 C31.76831612 38.90150956 33.62559376 40.03047366 35.8125 41.625 C46.89666231 49.1614951 59.49078291 54.33735252 72 59 C73.09699219 59.43054688 74.19398438 59.86109375 75.32421875 60.3046875 C87.79522859 64.88355314 100.92503446 66.89474052 114 69 C115.0818457 69.18981445 116.16369141 69.37962891 117.27832031 69.57519531 C129.70884622 71.53864939 142.19450903 71.39564329 154.75 71.375 C155.93086182 71.37478851 157.11172363 71.37457703 158.32836914 71.37435913 C175.56220006 71.34349458 192.11693615 70.73959102 209 67 C209.91894043 66.81276367 210.83788086 66.62552734 211.78466797 66.43261719 C236.92030197 61.3090361 263.30297024 52.36700928 283.4765625 36.06640625 C285 35 285 35 287 35 C287 34.34 287 33.68 287 33 C288.5390625 31.51953125 288.5390625 31.51953125 290.625 29.8125 C297.64448674 23.87503559 297.64448674 23.87503559 302 16 C302.66 16 303.32 16 304 16 C304.11214844 15.46890625 304.22429687 14.9378125 304.33984375 14.390625 C305.16858677 11.38949642 306.34759982 8.61591837 307.5625 5.75 C308.01753906 4.67234375 308.47257812 3.5946875 308.94140625 2.484375 C309.29074219 1.66453125 309.64007813 0.8446875 310 0 C310.66 0 311.32 0 312 0 C312.07456924 5.95903843 312.12879953 11.91780075 312.16479492 17.87719727 C312.17981245 19.90133399 312.20023261 21.92543855 312.22631836 23.94946289 C312.26301267 26.87133761 312.27979708 29.79277935 312.29296875 32.71484375 C312.30845261 33.60896469 312.32393646 34.50308563 312.33988953 35.42430115 C312.34212447 43.90877992 310.00050332 50.71022751 305.8125 58.0625 C305.28269531 59.00222656 304.75289063 59.94195312 304.20703125 60.91015625 C303.80871094 61.59980469 303.41039062 62.28945312 303 63 C302.34 63 301.68 63 301 63 C300.731875 63.5775 300.46375 64.155 300.1875 64.75 C298.97070811 67.05550043 297.69666121 69.02056192 296 71 C295.34 71 294.68 71 294 71 C294 71.66 294 72.32 294 73 C291.93428625 74.81843123 289.86573355 76.51295136 287.6875 78.1875 C287.05247559 78.68000244 286.41745117 79.17250488 285.76318359 79.67993164 C277.98107261 85.64387449 269.90012854 90.87059062 261 95 C259.98808594 95.4846875 258.97617187 95.969375 257.93359375 96.46875 C251.70930021 99.41140558 245.58583776 102.00995553 239 104 C238.07316406 104.30550781 237.14632812 104.61101562 236.19140625 104.92578125 C226.91568862 107.92504575 217.56643324 110.18239483 208 112 C207.04818848 112.18626953 206.09637695 112.37253906 205.11572266 112.56445312 C171.87897996 118.81255833 136.18485293 118.35877421 103 112 C103 111.34 103 110.68 103 110 C101.7934375 109.690625 101.7934375 109.690625 100.5625 109.375 C97.50031002 108.19310211 95.56988157 107.09385822 92.9453125 105.23046875 C87.97237853 101.86293034 82.79428389 99.36413119 77.3125 96.9375 C76.34570312 96.5048584 75.37890625 96.0722168 74.3828125 95.62646484 C61.70004817 90.01531527 48.47975983 84.96015068 34.8046875 82.40234375 C26.37942969 80.77547172 21.82626044 77.19040172 16 71 C15.278125 70.26136719 14.55625 69.52273437 13.8125 68.76171875 C0.49114353 54.55731781 -2.36032451 39.77729818 -2.375 20.9375 C-2.37699402 20.24733795 -2.37898804 19.5571759 -2.38104248 18.84609985 C-2.37692749 6.24580672 -2.37692749 6.24580672 0 0 Z " fill="#8BC24B" transform="translate(188,114)"/>
<path d="M0 0 C0.66 0 1.32 0 2 0 C2.12483638 5.88574743 2.21491589 11.77070198 2.2746582 17.6574707 C2.2995971 19.65435229 2.3335611 21.65114456 2.37719727 23.64770508 C2.69687674 38.66511852 1.97257503 50.70293575 -7.8125 62.875 C-8.24119385 63.41108887 -8.6698877 63.94717773 -9.11157227 64.49951172 C-12.19770024 68.26871488 -15.51977328 71.57960853 -19.30859375 74.6328125 C-21.05065656 75.98023318 -21.05065656 75.98023318 -22.59765625 77.6796875 C-24 79 -24 79 -26 79 C-26 79.66 -26 80.32 -26 81 C-29.41211269 83.69901947 -33.25006067 85.80572955 -37 88 C-37.64372559 88.3825293 -38.28745117 88.76505859 -38.95068359 89.15917969 C-57.72923131 100.16560638 -78.71869755 106.75672912 -100 111 C-101.82337891 111.40992188 -101.82337891 111.40992188 -103.68359375 111.828125 C-113.42812006 113.83002164 -123.21384499 114.56527502 -133.125 115.1875 C-133.79773956 115.23038147 -134.47047913 115.27326294 -135.16360474 115.31744385 C-162.02644553 116.98677723 -162.02644553 116.98677723 -166 115 C-166.35448012 112.59135306 -166.60602827 110.23443292 -166.8125 107.8125 C-168.10636123 95.73646185 -172.19627512 85.61233733 -178.64453125 75.328125 C-180 73 -180 73 -180 71 C-178.31596069 71.00785522 -178.31596069 71.00785522 -176.59790039 71.01586914 C-172.34660674 71.03426406 -168.09531643 71.0455551 -163.84399414 71.05493164 C-162.02009485 71.05989441 -160.1961994 71.0666668 -158.37231445 71.07543945 C-142.45904513 71.14994388 -126.71279087 70.99137496 -111 68.1875 C-109.98091553 68.01081787 -108.96183105 67.83413574 -107.91186523 67.65209961 C-99.18409224 66.10374558 -90.568897 64.26488846 -82 62 C-81.2982666 61.81856445 -80.5965332 61.63712891 -79.87353516 61.45019531 C-69.31640645 58.68540299 -59.74433104 54.88983964 -50 50 C-49.23300781 49.64035156 -48.46601563 49.28070313 -47.67578125 48.91015625 C-35.97358127 43.3795019 -24.79609325 35.50929 -16 26 C-15.44699219 25.41734375 -14.89398438 24.8346875 -14.32421875 24.234375 C-7.70869049 17.03804019 -3.7826578 8.93890643 0 0 Z " fill="#8CC24C" transform="translate(498,177)"/>
<path d="M0 0 C0.66 0 1.32 0 2 0 C2.07458679 5.81662241 2.12880761 11.63296163 2.16479492 17.44995117 C2.17980956 19.42558649 2.20022751 21.40118889 2.22631836 23.37670898 C2.26302572 26.22908695 2.27979993 29.08102129 2.29296875 31.93359375 C2.30845261 32.80584091 2.32393646 33.67808807 2.33988953 34.57676697 C2.34215783 42.98749457 -0.0375661 49.7770605 -4.1875 57.0625 C-4.71730469 58.00222656 -5.24710938 58.94195312 -5.79296875 59.91015625 C-6.19128906 60.59980469 -6.58960938 61.28945313 -7 62 C-7.66 62 -8.32 62 -9 62 C-9.268125 62.5775 -9.53625 63.155 -9.8125 63.75 C-11.02929189 66.05550043 -12.30333879 68.02056192 -14 70 C-14.66 70 -15.32 70 -16 70 C-16 70.66 -16 71.32 -16 72 C-18.00240445 73.78025319 -20.00604971 75.43031303 -22.125 77.0625 C-22.75809082 77.55202148 -23.39118164 78.04154297 -24.04345703 78.54589844 C-49.13041142 97.68875395 -78.10270127 106.73914993 -109 112 C-110.331521 112.24556641 -110.331521 112.24556641 -111.68994141 112.49609375 C-124.23592667 114.79488492 -136.59179918 115.26106996 -149.3125 115.25 C-150.4708284 115.24910873 -150.4708284 115.24910873 -151.65255737 115.24819946 C-164.79051734 115.20948266 -164.79051734 115.20948266 -166 114 C-166.1011692 110.90918535 -166.13968558 107.84117445 -166.1328125 104.75 C-166.13376923 103.82155273 -166.13472595 102.89310547 -166.13571167 101.93652344 C-166.13639355 99.96940035 -166.13453872 98.00227504 -166.13037109 96.03515625 C-166.12502295 93.01296974 -166.13031582 89.99093185 -166.13671875 86.96875 C-166.13605797 85.06249967 -166.13477681 83.15624943 -166.1328125 81.25 C-166.13483673 80.33959961 -166.13686096 79.42919922 -166.13894653 78.49121094 C-166.11494969 72.11494969 -166.11494969 72.11494969 -165 71 C-162.57831691 70.88852814 -160.18064759 70.83768385 -157.7578125 70.82421875 C-156.21368884 70.80405746 -154.66958064 70.78268439 -153.12548828 70.76025391 C-152.30953186 70.74907532 -151.49357544 70.73789673 -150.65289307 70.72637939 C-133.78190325 70.46690091 -117.62277788 69.04705585 -101 66 C-99.54853734 65.75824374 -98.09675302 65.51840371 -96.64453125 65.28125 C-73.32214177 61.15252352 -49.00128213 51.1944376 -29.59375 37.734375 C-27.43628031 36.29172961 -25.35037796 35.08649547 -23 34 C-23 33.34 -23 32.68 -23 32 C-21.4609375 30.51953125 -21.4609375 30.51953125 -19.375 28.8125 C-10.40767926 21.07228631 -6.02679315 12.59345668 -1 2 C-0.67 1.34 -0.34 0.68 0 0 Z " fill="#8CC24B" transform="translate(498,240)"/>
<path d="M0 0 C0.66 0 1.32 0 2 0 C2.07467117 5.79831185 2.12884674 11.59633806 2.16479492 17.39501953 C2.17979561 19.36381919 2.20020283 21.33258593 2.22631836 23.30126953 C2.26308815 26.14624198 2.27981387 28.99076913 2.29296875 31.8359375 C2.30845261 32.70302338 2.32393646 33.57010925 2.33988953 34.46347046 C2.34414247 50.23170117 -5.95241281 61.33518454 -16.3515625 72.37109375 C-23.02971768 79 -23.02971768 79 -26 79 C-26 79.66 -26 80.32 -26 81 C-29.41211269 83.69901947 -33.25006067 85.80572955 -37 88 C-37.64372559 88.3825293 -38.28745117 88.76505859 -38.95068359 89.15917969 C-57.72601014 100.1637184 -78.71947282 106.76549916 -100 111 C-101.23878906 111.27328125 -102.47757812 111.5465625 -103.75390625 111.828125 C-123.4397901 115.9457743 -144.92003299 117.13163641 -165 116 C-166.94863925 114.05136075 -166.1291874 111.1019128 -166.13894653 108.50878906 C-166.1369223 107.59838867 -166.13489807 106.68798828 -166.1328125 105.75 C-166.13376923 104.82155273 -166.13472595 103.89310547 -166.13571167 102.93652344 C-166.13639355 100.96940035 -166.13453872 99.00227504 -166.13037109 97.03515625 C-166.12502295 94.01296974 -166.13031582 90.99093185 -166.13671875 87.96875 C-166.13605797 86.06249967 -166.13477681 84.15624943 -166.1328125 82.25 C-166.13483673 81.33959961 -166.13686096 80.42919922 -166.13894653 79.49121094 C-166.11494969 73.11494969 -166.11494969 73.11494969 -165 72 C-162.02396445 71.81641962 -159.06528448 71.69261412 -156.0859375 71.60546875 C-154.20154384 71.53956561 -152.31718604 71.47263101 -150.43286133 71.40478516 C-149.44266998 71.36992004 -148.45247864 71.33505493 -147.43228149 71.2991333 C-130.64608777 70.68620374 -114.41070602 69.79383516 -98 66 C-96.47431057 65.67412772 -94.94827269 65.34988221 -93.421875 65.02734375 C-78.14313139 61.70837206 -64.00467319 56.94349343 -50 50 C-49.26652344 49.66355469 -48.53304687 49.32710938 -47.77734375 48.98046875 C-25.44854556 38.5982887 -9.55943287 22.59016819 0 0 Z " fill="#8BC24B" transform="translate(498,302)"/>
<path d="M0 0 C4.25593825 0.57960249 8.46504871 1.26508666 12.68847656 2.0534668 C37.94460526 6.61989099 63.44149849 6.26374069 89 6 C88.67 6.99 88.34 7.98 88 9 C31.80282139 9.60094046 31.80282139 9.60094046 21 6 C18.42734182 5.92970879 15.88358569 5.90629168 13.3125 5.9375 C12.61060547 5.94201172 11.90871094 5.94652344 11.18554688 5.95117188 C9.45699462 5.96293073 7.72848635 5.98086546 6 6 C6 5.34 6 4.68 6 4 C4.02 3.34 2.04 2.68 0 2 C0 1.34 0 0.68 0 0 Z " fill="#A3C678" transform="translate(94,388)"/>
<path d="M0 0 C6.10132987 -0.11252453 11.96962381 0.01321117 18 1 C18.33 1.33 18.66 1.66 19 2 C22.46270721 2.38042283 25.95751138 2.43320672 29.4375 2.5625 C31.0769458 2.62401245 31.0769458 2.62401245 32.74951172 2.68676758 C41.63839814 2.98454342 50.52676469 3.1346123 59.42019653 3.17623901 C60.86721822 3.18362965 62.31422787 3.1942053 63.76119995 3.20828247 C73.69740947 3.2960983 83.17772516 2.54238496 93 1 C98.70142401 0.15471716 104.24282107 -0.11994123 110 0 C107.21038386 1.53001805 104.82642319 2.35282261 101.68359375 2.81640625 C100.84699219 2.94039795 100.01039063 3.06438965 99.1484375 3.19213867 C98.25382812 3.31435791 97.35921875 3.43657715 96.4375 3.5625 C95.03564453 3.75646362 95.03564453 3.75646362 93.60546875 3.9543457 C84.412761 5.1678763 75.26563073 5.77276197 66 6 C65.21286621 6.02191406 64.42573242 6.04382813 63.61474609 6.06640625 C42.61055372 6.57590758 20.41406991 6.37212366 0 1 C0 0.67 0 0.34 0 0 Z " fill="#9DC16D" transform="translate(101,370)"/>
<path d="M0 0 C1.20970459 0.00523682 2.41940918 0.01047363 3.66577148 0.01586914 C4.97094727 0.0190918 6.27612305 0.02231445 7.62084961 0.02563477 C9.00952213 0.03399138 10.39819401 0.04245634 11.78686523 0.05102539 C13.17944179 0.05603873 14.57202005 0.06060193 15.96459961 0.06469727 C19.38456394 0.07653105 22.80444367 0.09301659 26.22436523 0.11352539 C26.22436523 0.44352539 26.22436523 0.77352539 26.22436523 1.11352539 C16.98436523 1.11352539 7.74436523 1.11352539 -1.77563477 1.11352539 C-1.44563477 14.31352539 -1.11563477 27.51352539 -0.77563477 41.11352539 C9.78436523 41.77352539 20.34436523 42.43352539 31.22436523 43.11352539 C31.22436523 43.44352539 31.22436523 43.77352539 31.22436523 44.11352539 C26.40055722 44.13817729 21.57678557 44.15636232 16.75292969 44.16845703 C15.11067059 44.17349713 13.468416 44.18032917 11.82617188 44.18896484 C9.47061045 44.20104465 7.11510815 44.20675678 4.75952148 44.21118164 C4.02097427 44.21634293 3.28242706 44.22150421 2.52149963 44.2268219 C0.75538436 44.22701789 -1.01060622 44.17547258 -2.77563477 44.11352539 C-4.72427401 42.16488614 -3.90482216 39.21543819 -3.9145813 36.62231445 C-3.91255707 35.71191406 -3.91053284 34.80151367 -3.90844727 33.86352539 C-3.90940399 32.93507813 -3.91036072 32.00663086 -3.91134644 31.05004883 C-3.91202832 29.08292574 -3.91017348 27.11580043 -3.90600586 25.14868164 C-3.90065772 22.12649513 -3.90595059 19.10445724 -3.91235352 16.08227539 C-3.91169274 14.17602506 -3.91041158 12.26977482 -3.90844727 10.36352539 C-3.9104715 9.453125 -3.91249573 8.54272461 -3.9145813 7.60473633 C-3.88655938 0.15896298 -3.88655938 0.15896298 0 0 Z " fill="#BCD89A" transform="translate(335.775634765625,310.886474609375)"/>
<path d="M0 0 C1.39515844 0.09669897 2.79034066 0.19305533 4.18554688 0.2890625 C7.5614463 0.52268876 10.93706718 0.75974203 14.3125 1 C14.3125 1.33 14.3125 1.66 14.3125 2 C13.75032776 1.99555878 13.18815552 1.99111755 12.60894775 1.98654175 C6.70302906 1.94193871 0.79715902 1.91198184 -5.10888672 1.89013672 C-7.30649767 1.88014318 -9.50409555 1.86654382 -11.70166016 1.84912109 C-27.15399171 1.55171784 -27.15399171 1.55171784 -42.4206543 3.56079102 C-45.68838944 4.1939257 -48.85773056 4.08552631 -52.171875 4 C-55.861457 4 -59.48432503 4.44097907 -63.14453125 4.87890625 C-65.83550325 5.00704777 -68.07781211 4.63250963 -70.6875 4 C-70.6875 3.67 -70.6875 3.34 -70.6875 3 C-61.83043277 1.46382001 -53.03854542 0.52795323 -44.06640625 -0.00537109 C-42.05677613 -0.1253417 -40.0479774 -0.25536287 -38.0390625 -0.38671875 C-25.23926831 -1.18354388 -12.7815241 -0.91154581 0 0 Z " fill="#A5CB7B" transform="translate(177.6875,208)"/>
<path d="M0 0 C0 0.66 0 1.32 0 2 C-11.22 2 -22.44 2 -34 2 C-33.67 15.2 -33.34 28.4 -33 42 C-30.0384304 43.4807848 -27.16493705 43.35314037 -23.875 43.5625 C-22.59367187 43.64628906 -21.31234375 43.73007812 -19.9921875 43.81640625 C-18.51105469 43.90728516 -18.51105469 43.90728516 -17 44 C-17 44.33 -17 44.66 -17 45 C-19.97922593 45.02683987 -22.95821295 45.04676037 -25.9375 45.0625 C-26.78763672 45.07087891 -27.63777344 45.07925781 -28.51367188 45.08789062 C-29.32255859 45.09111328 -30.13144531 45.09433594 -30.96484375 45.09765625 C-31.7137085 45.10289307 -32.46257324 45.10812988 -33.23413086 45.11352539 C-35 45 -35 45 -36 44 C-36.1011692 40.90918535 -36.13968558 37.84117445 -36.1328125 34.75 C-36.13376923 33.82155273 -36.13472595 32.89310547 -36.13571167 31.93652344 C-36.13639355 29.96940035 -36.13453872 28.00227504 -36.13037109 26.03515625 C-36.12502295 23.01296974 -36.13031582 19.99093185 -36.13671875 16.96875 C-36.13605797 15.06249967 -36.13477681 13.15624943 -36.1328125 11.25 C-36.13483673 10.33959961 -36.13686096 9.42919922 -36.13894653 8.49121094 C-36.11494969 2.11494969 -36.11494969 2.11494969 -35 1 C-33.26572961 0.84172313 -31.52541333 0.7487907 -29.78515625 0.68359375 C-28.16577148 0.62075195 -28.16577148 0.62075195 -26.51367188 0.55664062 C-25.37478516 0.51732422 -24.23589844 0.47800781 -23.0625 0.4375 C-21.40637695 0.37272461 -21.40637695 0.37272461 -19.71679688 0.30664062 C-13.14138536 0.06195609 -6.57975676 -0.05855695 0 0 Z " fill="#B4D38F" transform="translate(368,373)"/>
<path d="M0 0 C0 0.33 0 0.66 0 1 C-27.76760195 3.90361726 -54.16435193 4.36470937 -82 2 C-82 1.67 -82 1.34 -82 1 C-81.42244965 1.00222061 -80.84489929 1.00444122 -80.24984741 1.00672913 C-74.11530186 1.02924198 -67.98076842 1.04409317 -61.84619141 1.05493164 C-59.57144696 1.05989135 -57.29670557 1.06666118 -55.02197266 1.07543945 C-42.4482881 1.12266717 -29.91708894 1.04130016 -17.35946655 0.35255432 C-11.56637812 0.03711013 -5.8014983 -0.05508758 0 0 Z " fill="#AACB7C" transform="translate(388,164)"/>
<path d="M0 0 C0.66 0 1.32 0 2 0 C3.25741343 3.7722403 3.18182196 7.3222582 3.203125 11.25390625 C3.20882507 12.06939438 3.21452515 12.88488251 3.22039795 13.7250824 C3.22984528 15.4541596 3.23638087 17.18325479 3.24023438 18.91235352 C3.24987467 21.52848908 3.28087239 24.1438166 3.3125 26.75976562 C3.42289171 44.09769721 3.42289171 44.09769721 0 51 C-0.66 51.66 -1.32 52.32 -2 53 C-2.05391993 51.20866022 -2.09275571 49.41686101 -2.125 47.625 C-2.14820313 46.62726563 -2.17140625 45.62953125 -2.1953125 44.6015625 C-2 42 -2 42 0 40 C0.27917295 36.79186374 0.27917295 36.79186374 0.1953125 33.0234375 C0.1924826 32.33819 0.18965271 31.6529425 0.18673706 30.94692993 C0.17553281 28.75610973 0.15042859 26.56569684 0.125 24.375 C0.11497048 22.8906309 0.10584458 21.4062554 0.09765625 19.921875 C0.07559294 16.28111739 0.04106176 12.64059844 0 9 C-0.66 9 -1.32 9 -2 9 C-1.34 6.03 -0.68 3.06 0 0 Z " fill="#A3C578" transform="translate(310,385)"/>
<path d="M0 0 C0 0.33 0 0.66 0 1 C-2.5401032 1.48895449 -5.08162518 1.96609863 -7.625 2.4375 C-8.31851563 2.57220703 -9.01203125 2.70691406 -9.7265625 2.84570312 C-21.94678389 5.08244008 -34.36262303 5.18137975 -46.75 5.1875 C-48.11458501 5.19968379 -49.47916837 5.21205288 -50.84375 5.22460938 C-52.76960938 5.22750977 -52.76960938 5.22750977 -54.734375 5.23046875 C-55.89163086 5.23457764 -57.04888672 5.23868652 -58.24121094 5.24291992 C-61 5 -61 5 -63 3 C-61.82904785 2.97494385 -60.6580957 2.9498877 -59.45166016 2.92407227 C-55.11674622 2.83006297 -50.78199496 2.72982659 -46.44726562 2.62768555 C-44.56937458 2.58431211 -42.69144348 2.54263882 -40.81347656 2.50268555 C-38.1177156 2.44504124 -35.42215673 2.38133019 -32.7265625 2.31640625 C-31.88380768 2.29969376 -31.04105286 2.28298126 -30.17276001 2.26576233 C-25.9513339 2.26763856 -25.9513339 2.26763856 -22 1 C-14.68972717 0.06308212 -7.36106568 -0.14656989 0 0 Z " fill="#94BE63" transform="translate(398,412)"/>
<path d="M0 0 C2.20857055 0.14219564 4.41684987 0.28891847 6.625 0.4375 C7.85476563 0.51871094 9.08453125 0.59992188 10.3515625 0.68359375 C14 1 14 1 16.47998047 1.51147461 C21.64213408 2.22790334 26.76334893 2.14230934 31.96875 2.1328125 C33.12242065 2.13376923 34.27609131 2.13472595 35.46472168 2.13571167 C37.89884496 2.13639081 40.33297007 2.13455509 42.76708984 2.13037109 C46.48669514 2.12501914 50.20617969 2.13032515 53.92578125 2.13671875 C56.2942711 2.13605792 58.66276087 2.13477666 61.03125 2.1328125 C62.14077026 2.13483673 63.25029053 2.13686096 64.39343262 2.13894653 C69.3810893 2.12384792 74.09508288 2.01823722 79 1 C81.67810075 0.88803927 84.31732686 0.95374701 87 1 C82.39083936 3.38404861 78.91452009 4.1279457 73.71533203 4.14526367 C71.76652634 4.15483345 71.76652634 4.15483345 69.77835083 4.16459656 C68.35483843 4.16612665 66.93132553 4.16723985 65.5078125 4.16796875 C64.04108651 4.17118491 62.57436083 4.17454925 61.1076355 4.17805481 C58.02585102 4.18404813 54.94409458 4.18589485 51.86230469 4.18530273 C47.94793284 4.18520189 44.03374559 4.19877158 40.11941719 4.21607494 C37.08386442 4.22730496 34.04835445 4.22921849 31.01278305 4.22869301 C29.57215625 4.22985981 28.13152784 4.23420692 26.69092178 4.24202538 C17.62519277 4.28656344 8.92739961 3.67575576 0 2 C0 1.34 0 0.68 0 0 Z " fill="#BEDF9C" transform="translate(297,183)"/>
<path d="M0 0 C0.66 0 1.32 0 2 0 C1.67 1.98 1.34 3.96 1 6 C0.01 6.33 -0.98 6.66 -2 7 C-3.01810172 8.77039169 -3.01810172 8.77039169 -3.8125 10.875 C-5.34683007 14.18062231 -5.89948034 14.93566742 -9.125 17 C-12 18 -12 18 -14 18 C-14.33 18.99 -14.66 19.98 -15 21 C-18.53247374 23.40208215 -22.90187897 24.04377176 -27 25 C-25.62961932 22.25923864 -23.52329153 21.57507151 -20.9140625 20.15234375 C-18.99137768 18.99480901 -17.37894688 17.72064224 -15.6875 16.25 C-13 14 -13 14 -11 14 C-11 13.34 -11 12.68 -11 12 C-9.52307016 10.7528148 -8.04202596 9.50964765 -6.52734375 8.30859375 C-4.70225929 6.74490246 -3.42509913 4.92388382 -2 3 C-1.34 3 -0.68 3 0 3 C0 2.01 0 1.02 0 0 Z " fill="#98C162" transform="translate(300,342)"/>
<path d="M0 0 C0.99 0.33 1.98 0.66 3 1 C3 2.65 3 4.3 3 6 C3.66 6 4.32 6 5 6 C6.0723969 9.68636433 6.04183175 12.97314114 5.9375 16.78125 C5.9296264 19.32801888 5.9296264 19.32801888 7 23 C22.84 23.495 22.84 23.495 39 24 C39 24.33 39 24.66 39 25 C7.97969543 26.98984772 7.97969543 26.98984772 4 25 C3.56840821 22.48238123 3.24968141 20.03662664 3 17.5 C2.34396856 11.54668032 1.45516608 5.82066433 0 0 Z " fill="#AED089" transform="translate(328,267)"/>
<path d="M0 0 C1.07507813 0.13277344 2.15015625 0.26554687 3.2578125 0.40234375 C21.77510856 2.49789399 40.38586337 2.6456645 59 3 C59 3.33 59 3.66 59 4 C39.50892013 4.84547676 20.41956692 5.41497184 1 3 C0.67 2.01 0.34 1.02 0 0 Z " fill="#B0D08A" transform="translate(111,454)"/>
<path d="M0 0 C0.66 0 1.32 0 2 0 C2.33 1.98 2.66 3.96 3 6 C2.34 5.67 1.68 5.34 1 5 C1 18.53 1 32.06 1 46 C-2.62065757 38.75868486 -2.18621306 31.63576978 -2.18530273 23.70776367 C-2.18748971 21.57255123 -2.20567533 19.43785565 -2.22460938 17.30273438 C-2.2275439 15.93229342 -2.2295283 14.56185003 -2.23046875 13.19140625 C-2.23457764 11.95592041 -2.23868652 10.72043457 -2.24291992 9.44750977 C-1.99830446 5.975937 -1.24971069 3.23401725 0 0 Z " fill="#B7D391" transform="translate(188,114)"/>
<path d="M0 0 C-0.125 1.8125 -0.125 1.8125 -1 4 C-2.97416268 5.05008653 -4.97582866 6.04987876 -7 7 C-7.99 8.485 -7.99 8.485 -9 10 C-14.78558731 14.20506346 -21.0354432 14.74395012 -28 15 C-25.53953207 13.35968805 -23.27798853 12.1353899 -20.625 10.875 C-15.06219964 8.14282814 -9.90566208 4.90325847 -4.6875 1.57421875 C-2 0 -2 0 0 0 Z " fill="#A4C976" transform="translate(470,153)"/>
<path d="M0 0 C8.95212623 -0.06673083 17.86867472 0.12288144 26.8125 0.5 C27.99392578 0.54769531 29.17535156 0.59539062 30.39257812 0.64453125 C33.2618223 0.76069498 36.13094746 0.87921131 39 1 C39 1.33 39 1.66 39 2 C28.11 2 17.22 2 6 2 C6 4.97 6 7.94 6 11 C2.87920503 7.46309903 1.3789035 4.484542 0 0 Z " fill="#ADCA86" transform="translate(318,248)"/>
<path d="M0 0 C1.37589617 0.28740942 2.75067322 0.58017742 4.125 0.875 C4.89070313 1.03742188 5.65640625 1.19984375 6.4453125 1.3671875 C9 2 9 2 11.65625 2.9375 C16.16461903 4.37006586 20.73418646 5.23126273 25.375 6.125 C26.30183594 6.30675781 27.22867187 6.48851562 28.18359375 6.67578125 C30.4550668 7.12070896 32.72718046 7.56201206 35 8 C35 8.33 35 8.66 35 9 C29.81021457 10.03795709 26.93194174 9.67686019 22 8 C20.56140092 8.0272979 19.12324782 8.09294468 17.6875 8.1875 C12.92601355 8.33227493 9.9942401 6.71762892 6.04296875 4.19140625 C4.01104545 3.00644142 2.29606266 2.44889315 0 2 C0 1.34 0 0.68 0 0 Z " fill="#A0C470" transform="translate(260,174)"/>
<path d="M0 0 C1.93166016 0.01740234 1.93166016 0.01740234 3.90234375 0.03515625 C5.19269531 0.04417969 6.48304688 0.05320312 7.8125 0.0625 C8.81152344 0.07410156 9.81054688 0.08570313 10.83984375 0.09765625 C10.83984375 0.42765625 10.83984375 0.75765625 10.83984375 1.09765625 C6.52990267 1.94459774 2.21654587 2.77271838 -2.09765625 3.59765625 C-3.91620117 3.95537109 -3.91620117 3.95537109 -5.77148438 4.3203125 C-12.35714577 5.56962496 -18.45749995 6.38687551 -25.16015625 6.09765625 C-25.16015625 5.43765625 -25.16015625 4.77765625 -25.16015625 4.09765625 C-21.20015625 4.09765625 -17.24015625 4.09765625 -13.16015625 4.09765625 C-13.16015625 3.43765625 -13.16015625 2.77765625 -13.16015625 2.09765625 C-12.20302734 2.00677734 -12.20302734 2.00677734 -11.2265625 1.9140625 C-10.40027344 1.83027344 -9.57398438 1.74648438 -8.72265625 1.66015625 C-7.89894531 1.57894531 -7.07523437 1.49773437 -6.2265625 1.4140625 C-3.20400948 0.95125192 -3.46308448 0.10701744 0 0 Z " fill="#AACB81" transform="translate(397.16015625,284.90234375)"/>
<path d="M0 0 C1.32 0.66 2.64 1.32 4 2 C3.67 2.66 3.34 3.32 3 4 C2.84588894 6.0307477 2.75017547 8.06606421 2.68359375 10.1015625 C2.64169922 11.31328125 2.59980469 12.525 2.55664062 13.7734375 C2.51732422 15.04445313 2.47800781 16.31546875 2.4375 17.625 C2.37272461 19.543125 2.37272461 19.543125 2.30664062 21.5 C2.20030114 24.66655348 2.09827167 27.83318753 2 31 C1.67 31 1.34 31 1 31 C0.67 23.74 0.34 16.48 0 9 C-0.99 10.32 -1.98 11.64 -3 13 C-3.66 13 -4.32 13 -5 13 C-4.54803755 11.39402675 -4.08817673 9.79027492 -3.625 8.1875 C-3.36976563 7.29417969 -3.11453125 6.40085937 -2.8515625 5.48046875 C-2 3 -2 3 0 0 Z " fill="#ACCA87" transform="translate(311,322)"/>
<path d="M0 0 C-1.50720702 5.00204329 -4.4940354 8.10395018 -8 11.8125 C-8.81984375 12.7087207 -8.81984375 12.7087207 -9.65625 13.62304688 C-11.05814589 15.12630533 -12.52470177 16.56870925 -14 18 C-14.66 18 -15.32 18 -16 18 C-16 17.34 -16 16.68 -16 16 C-15.34 16 -14.68 16 -14 16 C-14 15.01 -14 14.02 -14 13 C-14.99 12.67 -15.98 12.34 -17 12 C-14.29889598 10.64944799 -11.99210994 11 -9 11 C-9.3403125 10.1028125 -9.3403125 10.1028125 -9.6875 9.1875 C-9.790625 8.465625 -9.89375 7.74375 -10 7 C-8.8125 5.5 -8.8125 5.5 -7 4 C-6.34 3.278125 -5.68 2.55625 -5 1.8125 C-3 0 -3 0 0 0 Z " fill="#9CC467" transform="translate(493,359)"/>
<path d="M0 0 C2.35872405 0.52825591 4.66944685 1.1154867 7 1.75 C15.58984951 4.00572125 24.24013807 5.56893345 33 7 C33 7.33 33 7.66 33 8 C29.72847382 7.89013032 26.45809886 7.7595003 23.1875 7.625 C22.25873047 7.5940625 21.32996094 7.563125 20.37304688 7.53125 C19.0340332 7.47324219 19.0340332 7.47324219 17.66796875 7.4140625 C16.84578857 7.3826416 16.0236084 7.3512207 15.17651367 7.31884766 C13 7 13 7 10 5 C7.66800612 4.92094936 5.33167378 4.91201231 3 5 C3 4.01 3 3.02 3 2 C1.68 1.67 0.36 1.34 -1 1 C-0.67 0.67 -0.34 0.34 0 0 Z " fill="#ADCE82" transform="translate(77,446)"/>
<path d="M0 0 C0.66 0 1.32 0 2 0 C1.67237508 8.51824802 -1.78538728 17.14298839 -7.875 23.25 C-8.57625 23.8275 -9.2775 24.405 -10 25 C-9.67 23.35 -9.34 21.7 -9 20 C-8.01 19.67 -7.02 19.34 -6 19 C-6 17.35 -6 15.7 -6 14 C-5.34 14 -4.68 14 -4 14 C-4 13.34 -4 12.68 -4 12 C-3.34 12 -2.68 12 -2 12 C-2 11.34 -2 10.68 -2 10 C-2.99 9.67 -3.98 9.34 -5 9 C-4.67 8.34 -4.34 7.68 -4 7 C-3.01 7 -2.02 7 -1 7 C-0.67 4.69 -0.34 2.38 0 0 Z " fill="#A9CB7B" transform="translate(498,91)"/>
<path d="M0 0 C3.62371511 1.57848012 6.31368388 3.82155261 9.3125 6.375 C13.38826747 9.76783056 17.28542586 12.59032878 22 15 C21.01 15.66 20.02 16.32 19 17 C18.67 16.34 18.34 15.68 18 15 C16.02111039 14.27306096 14.02045442 13.60183749 12 13 C12 12.34 12 11.68 12 11 C11.01 11 10.02 11 9 11 C9 10.34 9 9.68 9 9 C8.01 9 7.02 9 6 9 C5.67 7.68 5.34 6.36 5 5 C4.34 5 3.68 5 3 5 C2.67 5.66 2.34 6.32 2 7 C2 6.34 2 5.68 2 5 C1.34 4.67 0.68 4.34 0 4 C0 2.68 0 1.36 0 0 Z " fill="#A2C975" transform="translate(19,352)"/>
<path d="M0 0 C0.66 0.33 1.32 0.66 2 1 C-2.18461538 6.78461538 -2.18461538 6.78461538 -6.3125 7.875 C-7.6428125 7.936875 -7.6428125 7.936875 -9 8 C-9.1546875 8.8971875 -9.1546875 8.8971875 -9.3125 9.8125 C-10.10886799 12.34639814 -11.03130138 13.25845891 -13 15 C-13.680625 15.804375 -13.680625 15.804375 -14.375 16.625 C-16.48059676 18.4066588 -18.30492384 18.63580052 -21 19 C-20.07161713 17.68103535 -19.13194268 16.37001311 -18.1875 15.0625 C-17.66542969 14.33160156 -17.14335937 13.60070312 -16.60546875 12.84765625 C-15 11 -15 11 -12 10 C-11.2575 9.2575 -10.515 8.515 -9.75 7.75 C-6.69504521 4.69504521 -3.55633138 2.44061957 0 0 Z " fill="#A9CA7F" transform="translate(35,237)"/>
<path d="M0 0 C0.66 0 1.32 0 2 0 C2.29341689 3.05153561 2.42936649 5.95732881 2 9 C-0.25 11.125 -0.25 11.125 -3 13 C-4.54231014 15.25679887 -5.73672371 17.56702345 -7 20 C-7.66 20 -8.32 20 -9 20 C-9 20.66 -9 21.32 -9 22 C-9.66 21.67 -10.32 21.34 -11 21 C-10.62488281 20.48953125 -10.24976563 19.9790625 -9.86328125 19.453125 C-5.54675378 13.32082905 -2.67303142 6.99009544 0 0 Z " fill="#9CC26B" transform="translate(498,177)"/>
<path d="M0 0 C4.66666667 0.66666667 9.33333333 1.33333333 14 2 C14 2.99 14 3.98 14 5 C14.74765625 5.19335938 15.4953125 5.38671875 16.265625 5.5859375 C17.25046875 5.84632813 18.2353125 6.10671875 19.25 6.375 C20.22453125 6.63023437 21.1990625 6.88546875 22.203125 7.1484375 C24.65837303 7.89598509 26.75617405 8.77123817 29 10 C25.64433908 11.13768239 23.73048238 10.86173472 20.41015625 9.70703125 C19.54326172 9.40603516 18.67636719 9.10503906 17.78320312 8.79492188 C16.88537109 8.47072266 15.98753906 8.14652344 15.0625 7.8125 C14.16853516 7.50763672 13.27457031 7.20277344 12.35351562 6.88867188 C7.56434476 5.19272941 3.76464968 3.54458665 0 0 Z " fill="#A4C779" transform="translate(240,146)"/>
<path d="M0 0 C0 0.33 0 0.66 0 1 C-9.88085631 3.47021408 -19.86726368 3.63716839 -30 4 C-30 3.34 -30 2.68 -30 2 C-26.4925893 0.8308631 -23.15847816 0.64428724 -19.5 0.4375 C-18.79037109 0.3950415 -18.08074219 0.35258301 -17.34960938 0.30883789 C-11.56364027 -0.01587153 -5.79477238 -0.11049354 0 0 Z " fill="#A6CA7D" transform="translate(207,496)"/>
<path d="M0 0 C-2.9260764 1.6259241 -5.43051407 2.38355943 -8.73828125 2.8515625 C-9.64126953 2.98046875 -10.54425781 3.109375 -11.47460938 3.2421875 C-12.41111328 3.36851562 -13.34761719 3.49484375 -14.3125 3.625 C-15.23740234 3.7590625 -16.16230469 3.893125 -17.11523438 4.03125 C-22.12818906 4.72957205 -26.93980742 5.15355067 -32 5 C-32 4.34 -32 3.68 -32 3 C-28.27902614 2.50096314 -24.55783503 2.00381974 -20.8359375 1.51171875 C-18.73577297 1.23155424 -16.63606853 0.94743212 -14.5390625 0.64453125 C-9.6706524 -0.04102038 -4.90302711 -0.1021464 0 0 Z " fill="#A9CC7F" transform="translate(211,370)"/>
<path d="M0 0 C5.14664651 0.66066302 9.71680377 2.17273552 14.5625 3.9375 C15.6752832 4.33485352 15.6752832 4.33485352 16.81054688 4.74023438 C20.57061043 6.08957152 24.30294267 7.48457254 28 9 C28 9.33 28 9.66 28 10 C22.39234646 9.64570381 18.84433251 8.93209599 14 6 C10.29106092 5.74900133 10.29106092 5.74900133 7 6 C7 5.34 7 4.68 7 4 C4.69 3.34 2.38 2.68 0 2 C0 1.34 0 0.68 0 0 Z " fill="#A3C776" transform="translate(231,218)"/>
<path d="M0 0 C1.09570312 0.00902344 2.19140625 0.01804687 3.3203125 0.02734375 C4.58488281 0.04474609 4.58488281 0.04474609 5.875 0.0625 C5.545 1.0525 5.215 2.0425 4.875 3.0625 C-7.335 3.0625 -19.545 3.0625 -32.125 3.0625 C-32.125 2.7325 -32.125 2.4025 -32.125 2.0625 C-31.40844238 2.03744385 -30.69188477 2.0123877 -29.95361328 1.98657227 C-26.71888486 1.87080249 -23.48446159 1.74799031 -20.25 1.625 C-19.12207031 1.58568359 -17.99414062 1.54636719 -16.83203125 1.50585938 C-15.75566406 1.46396484 -14.67929688 1.42207031 -13.5703125 1.37890625 C-12.07781982 1.32391968 -12.07781982 1.32391968 -10.55517578 1.26782227 C-6.8254431 0.95270219 -3.93976805 -0.04191243 0 0 Z " fill="#9DC46C" transform="translate(177.125,393.9375)"/>
<path d="M0 0 C21.72340426 0.80851064 21.72340426 0.80851064 31 3 C31 3.33 31 3.66 31 4 C17.14 3.505 17.14 3.505 3 3 C3 2.34 3 1.68 3 1 C2.01 0.67 1.02 0.34 0 0 Z " fill="#ABCA80" transform="translate(364,0)"/>
<path d="M0 0 C0.33 0 0.66 0 1 0 C1.16817795 4.60792324 1.3286755 9.21602737 1.48217773 13.82446289 C1.53542409 15.39094166 1.59073889 16.95735157 1.64819336 18.52368164 C1.73059157 20.77995972 1.8054563 23.03638379 1.87890625 25.29296875 C1.90594131 25.98899704 1.93297638 26.68502533 1.96083069 27.40214539 C2.07312501 31.0918199 1.90155248 34.41503877 1 38 C-1.45198633 34.32202051 -1.27259068 31.55519479 -1.23046875 27.3046875 C-1.23001053 26.55663849 -1.22955231 25.80858948 -1.2290802 25.03787231 C-1.22606246 23.45931407 -1.21819041 21.88075868 -1.20581055 20.30224609 C-1.18751639 17.87717227 -1.18530117 15.45247947 -1.18554688 13.02734375 C-1.18063298 11.49478834 -1.17480522 9.96223554 -1.16796875 8.4296875 C-1.16685593 7.70055145 -1.1657431 6.97141541 -1.16459656 6.22018433 C-1.11606285 1.11606285 -1.11606285 1.11606285 0 0 Z " fill="#90B95C" transform="translate(311,330)"/>
<path d="M0 0 C0.65355469 0.15339844 1.30710937 0.30679688 1.98046875 0.46484375 C5.75492159 1.13379594 9.48905996 1.35407297 13.3125 1.5625 C14.05306641 1.60568359 14.79363281 1.64886719 15.55664062 1.69335938 C17.37091464 1.79870432 19.1854355 1.89978316 21 2 C21 2.33 21 2.66 21 3 C5.49 3 -10.02 3 -26 3 C-26 2.67 -26 2.34 -26 2 C-17.42 2 -8.84 2 0 2 C0 1.34 0 0.68 0 0 Z " fill="#C4E3A2" transform="translate(346,227)"/>
<path d="M0 0 C6.84826688 -0.32610795 12.86089306 0.88814333 19.5 2.5 C20.51320312 2.73847656 21.52640625 2.97695312 22.5703125 3.22265625 C25.04886426 3.80722034 27.52519334 4.39981469 30 5 C27.0371161 5.78454486 24.44725704 6.13527511 21.375 6.125 C20.59898437 6.12757813 19.82296875 6.13015625 19.0234375 6.1328125 C17 6 17 6 15 5 C15 4.34 15 3.68 15 3 C14.12988281 3.03480469 14.12988281 3.03480469 13.2421875 3.0703125 C8.38588834 3.18250423 4.57067605 2.87514915 0 1 C0 0.67 0 0.34 0 0 Z " fill="#B7D393" transform="translate(193,210)"/>
<path d="M0 0 C-0.78246094 0.20496094 -1.56492188 0.40992188 -2.37109375 0.62109375 C-3.38300781 0.89050781 -4.39492187 1.15992188 -5.4375 1.4375 C-6.44683594 1.70433594 -7.45617187 1.97117187 -8.49609375 2.24609375 C-10.91752001 2.75978077 -10.91752001 2.75978077 -12 4 C-13.56172745 4.08685603 -15.12729344 4.10702219 -16.69140625 4.09765625 C-17.63564453 4.09443359 -18.57988281 4.09121094 -19.55273438 4.08789062 C-20.54595703 4.07951172 -21.53917969 4.07113281 -22.5625 4.0625 C-23.55958984 4.05798828 -24.55667969 4.05347656 -25.58398438 4.04882812 C-28.05604849 4.03700007 -30.52799518 4.02051849 -33 4 C-33 3.67 -33 3.34 -33 3 C-31.74445313 2.87882812 -30.48890625 2.75765625 -29.1953125 2.6328125 C-17.46248982 1.52804339 -17.46248982 1.52804339 -5.91015625 -0.73046875 C-3.68854224 -1.04394803 -2.12408684 -0.67001397 0 0 Z " fill="#A8CB81" transform="translate(213,453)"/>
<path d="M0 0 C8.415 3.96 8.415 3.96 17 8 C12.98316275 9.00420931 12.4881491 9.11018849 9 7.625 C6.34871323 6.51684498 3.80485926 5.63860635 1 5 C1 5.66 1 6.32 1 7 C0.01 7.33 -0.98 7.66 -2 8 C-2.33 7.34 -2.66 6.68 -3 6 C-2.67 5.34 -2.34 4.68 -2 4 C-1.34 4 -0.68 4 0 4 C0 2.68 0 1.36 0 0 Z " fill="#99C760" transform="translate(228,159)"/>
<path d="M0 0 C4.05606165 0.46800711 7.46588679 0.87953208 11 3 C11 3.66 11 4.32 11 5 C11.66 5 12.32 5 13 5 C13.33 5.66 13.66 6.32 14 7 C16.3140622 7.73075648 18.64828869 8.40138258 21 9 C20.67 9.66 20.34 10.32 20 11 C15.34269991 10.42228148 11.73321811 8.39706248 7.75 6.0625 C7.11320313 5.70220703 6.47640625 5.34191406 5.8203125 4.97070312 C1.13091343 2.26182685 1.13091343 2.26182685 0 0 Z " fill="#A3C975" transform="translate(220,135)"/>
<path d="M0 0 C-3.29907353 3.29907353 -7.29683373 4.89128726 -11.9375 5.1875 C-12.9584375 5.0946875 -12.9584375 5.0946875 -14 5 C-14.33 6.65 -14.66 8.3 -15 10 C-15.66 9.67 -16.32 9.34 -17 9 C-17 8.67 -17 8.34 -17 8 C-18.65 7.67 -20.3 7.34 -22 7 C-19.16533147 5.11022098 -16.8160237 4.11904393 -13.625 3 C-10.81290415 2.00840697 -8.06025794 1.02685984 -5.3359375 -0.1875 C-3 -1 -3 -1 0 0 Z " fill="#A5C675" transform="translate(445,356)"/>
<path d="M0 0 C3.2278491 2.60817606 4.02041521 5.466831 5.1875 9.375 C5.53167969 10.49648438 5.87585938 11.61796875 6.23046875 12.7734375 C6.9223867 15.67457571 7.16080829 18.03890942 7 21 C5.26337666 17.77484237 4.1094072 14.48670834 3 11 C2.01 11.33 1.02 11.66 0 12 C-0.625 9.625 -0.625 9.625 -1 7 C-0.34 6.34 0.32 5.68 1 5 C0.67958603 2.39719432 0.67958603 2.39719432 0 0 Z " fill="#A1C874" transform="translate(306,267)"/>
<path d="M0 0 C0 3.20395416 -0.74335022 5.09399739 -2 8 C-2.66 8 -3.32 8 -4 8 C-4.33 10.31 -4.66 12.62 -5 15 C-5.99 15 -6.98 15 -8 15 C-8.66 16.32 -9.32 17.64 -10 19 C-10.66 19 -11.32 19 -12 19 C-9.28384229 11.53056629 -5.30133805 5.81380072 0 0 Z " fill="#A1C974" transform="translate(203,45)"/>
<path d="M0 0 C0.66 0.33 1.32 0.66 2 1 C-3.54351458 8.46242347 -7.9087589 11.64641521 -17 13 C-14.06606668 9.84358832 -11.04543489 7.6207917 -7.375 5.375 C-3.45420896 2.98303909 -3.45420896 2.98303909 0 0 Z " fill="#A9CB80" transform="translate(472,337)"/>
<path d="M0 0 C0.66 0 1.32 0 2 0 C2 0.66 2 1.32 2 2 C2.99 2.33 3.98 2.66 5 3 C5.33 4.98 5.66 6.96 6 9 C6.99 9.33 7.98 9.66 9 10 C9 10.99 9 11.98 9 13 C9.66 13 10.32 13 11 13 C14 16.46153846 14 16.46153846 14 19 C9.96189555 17.65396518 8.52704924 15.34663277 6 12 C6 11.34 6 10.68 6 10 C5.34 10 4.68 10 4 10 C0 3.375 0 3.375 0 0 Z " fill="#A4C674" transform="translate(5,313)"/>
<path d="M0 0 C-3.39673303 1.85276347 -6.86904604 2.99049196 -10.5625 4.125 C-11.69816406 4.47820312 -12.83382812 4.83140625 -14.00390625 5.1953125 C-17 6 -17 6 -20 6 C-20.33 5.01 -20.66 4.02 -21 3 C-18.6875 1.875 -18.6875 1.875 -16 1 C-15.01 1.66 -14.02 2.32 -13 3 C-13 2.34 -13 1.68 -13 1 C-8.60563789 0.14256349 -4.47427924 -0.08948558 0 0 Z " fill="#A0C66F" transform="translate(245,361)"/>
<path d="M0 0 C1.47601333 2.95202666 0.62291138 5.04967303 -0.1875 8.15625 C-1 10 -1 10 -3.625 11.5 C-4.40875 11.665 -5.1925 11.83 -6 12 C-6 12.66 -6 13.32 -6 14 C-7.65 14.33 -9.3 14.66 -11 15 C-10.62488281 14.50371094 -10.24976563 14.00742187 -9.86328125 13.49609375 C-6.50836081 9.04258476 -3.22288764 4.54995902 0 0 Z " fill="#A3C874" transform="translate(492,253)"/>
<path d="M0 0 C4.27990445 0.47554494 6.12698311 2.98683595 9 6 C9.928125 6.70125 10.85625 7.4025 11.8125 8.125 C12.534375 8.74375 13.25625 9.3625 14 10 C14 10.99 14 11.98 14 13 C14.99 13 15.98 13 17 13 C16.67 13.99 16.34 14.98 16 16 C14.49428343 14.88266271 12.99555708 13.75589965 11.5 12.625 C10.6646875 11.99851563 9.829375 11.37203125 8.96875 10.7265625 C8.3190625 10.15679687 7.669375 9.58703125 7 9 C7 8.34 7 7.68 7 7 C6.34 7 5.68 7 5 7 C5 6.34 5 5.68 5 5 C4.34 5 3.68 5 3 5 C3 4.34 3 3.68 3 3 C2.34 3 1.68 3 1 3 C0.67 2.01 0.34 1.02 0 0 Z " fill="#A5CB7B" transform="translate(200,117)"/>
<path d="M0 0 C5.83092022 2.60856957 10.8330391 6.27284441 16 10 C15.34 10.66 14.68 11.32 14 12 C14 11.34 14 10.68 14 10 C11.69 10.33 9.38 10.66 7 11 C7 9.68 7 8.36 7 7 C6.34 6.67 5.68 6.34 5 6 C5 5.34 5 4.68 5 4 C3.35 3.67 1.7 3.34 0 3 C0 2.01 0 1.02 0 0 Z " fill="#A1C96E" transform="translate(459,26)"/>
<path d="M0 0 C0.33 1.32 0.66 2.64 1 4 C0.21625 4.37125 -0.5675 4.7425 -1.375 5.125 C-4.60628829 7.43306306 -5.07506212 9.21616321 -6 13 C-8.64 13.33 -11.28 13.66 -14 14 C-9.33333333 9.33333333 -4.66666667 4.66666667 0 0 Z " fill="#A4CB7C" transform="translate(298,408)"/>
<path d="M0 0 C0 0.33 0 0.66 0 1 C-2.68625454 1.50763865 -5.37368383 2.00627197 -8.0625 2.5 C-8.81466797 2.64308594 -9.56683594 2.78617187 -10.34179688 2.93359375 C-14.97740175 3.776431 -19.2889615 4.15015262 -24 4 C-24 3.34 -24 2.68 -24 2 C-17.33640768 -1.33179616 -7.333421 -0.14601944 0 0 Z " fill="#ABCB81" transform="translate(398,412)"/>
<path d="M0 0 C4.65767981 0.82741218 9.15117633 2.11777225 13.6875 3.4375 C14.45900391 3.65470703 15.23050781 3.87191406 16.02539062 4.09570312 C21.76493227 5.76493227 21.76493227 5.76493227 24 8 C18.08507728 7.54775239 12.64800112 6.8417395 7 5 C7 4.34 7 3.68 7 3 C4.69 2.67 2.38 2.34 0 2 C0 1.34 0 0.68 0 0 Z " fill="#A8CC7E" transform="translate(66,380)"/>
<path d="M0 0 C-0.33 0.99 -0.66 1.98 -1 3 C-4.83877862 4.6576544 -7.88422025 5 -12 5 C-14.25132517 5.91568906 -14.25132517 5.91568906 -16 7 C-16.33 6.01 -16.66 5.02 -17 4 C-14.91891315 3.32635339 -12.8350329 2.66133202 -10.75 2 C-9.58984375 1.62875 -8.4296875 1.2575 -7.234375 0.875 C-4 0 -4 0 0 0 Z " fill="#9FC870" transform="translate(282,6)"/>
<path d="M0 0 C1.8871875 0.0309375 1.8871875 0.0309375 3.8125 0.0625 C0.31662041 2.39308639 -3.10791315 3.25382 -7.125 4.25 C-7.84107422 4.44013672 -8.55714844 4.63027344 -9.29492188 4.82617188 C-12.99089833 5.7544477 -15.55301019 6.1840946 -19.1875 5.0625 C-18.8575 4.4025 -18.5275 3.7425 -18.1875 3.0625 C-15.7890625 2.46484375 -15.7890625 2.46484375 -12.8125 2 C-0.25716458 -0.00421581 -0.25716458 -0.00421581 0 0 Z " fill="#A6C97A" transform="translate(418.1875,405.9375)"/>
<path d="M0 0 C0.33 0 0.66 0 1 0 C1.25532751 3.06393013 1.21861333 4.63233212 -0.375 7.3125 C-1.179375 8.1478125 -1.179375 8.1478125 -2 9 C-2.66 9 -3.32 9 -4 9 C-4.33 12.3 -4.66 15.6 -5 19 C-5.99 19 -6.98 19 -8 19 C-7.44208397 14.34837514 -6.15058199 10.8387436 -4 6.6875 C-3.46375 5.63949219 -2.9275 4.59148437 -2.375 3.51171875 C-1 1 -1 1 0 0 Z " fill="#A1C876" transform="translate(8,263)"/>
<path d="M0 0 C2.31 0.66 4.62 1.32 7 2 C3.33038859 4.4464076 -0.17802309 4.96149344 -4.4375 5.6875 C-5.20126953 5.82994141 -5.96503906 5.97238281 -6.75195312 6.11914062 C-7.86280273 6.3134668 -7.86280273 6.3134668 -8.99609375 6.51171875 C-9.66825928 6.62990967 -10.3404248 6.74810059 -11.03295898 6.86987305 C-13.22601082 7.01495144 -14.90704331 6.63457442 -17 6 C-16.43152344 5.87882813 -15.86304688 5.75765625 -15.27734375 5.6328125 C-8.06974023 4.07342154 -8.06974023 4.07342154 -1 2 C-0.67 1.34 -0.34 0.68 0 0 Z " fill="#9EC771" transform="translate(401,220)"/>
<path d="M0 0 C-6.95975057 4.63983372 -13.88883758 4.23973879 -22 4 C-22 3.34 -22 2.68 -22 2 C-7.40318907 -0.29612756 -7.40318907 -0.29612756 0 0 Z " fill="#9BBF6F" transform="translate(390,371)"/>
<path d="M0 0 C0.33 0.99 0.66 1.98 1 3 C0.01 3.33 -0.98 3.66 -2 4 C-2.165 4.66 -2.33 5.32 -2.5 6 C-2.665 6.66 -2.83 7.32 -3 8 C-3.99 8.33 -4.98 8.66 -6 9 C-6.33 9.99 -6.66 10.98 -7 12 C-7.99 12 -8.98 12 -10 12 C-9.67 13.32 -9.34 14.64 -9 16 C-11.97 15.505 -11.97 15.505 -15 15 C-12.5923134 12.52352235 -10.23274081 10.18037413 -7.5 8.0625 C-4.54319496 5.62313584 -2.38364512 2.99658244 0 0 Z " fill="#ACCE87" transform="translate(486,199)"/>
<path d="M0 0 C8.73209978 -0.16104282 16.6245706 0.38267831 25 3 C25 3.33 25 3.66 25 4 C16.33491247 4.55048791 8.39647878 2.88081125 0 1 C0 0.67 0 0.34 0 0 Z " fill="#AFCE86" transform="translate(101,370)"/>
<path d="M0 0 C2 3 2 3 2 5 C2.99 5.33 3.98 5.66 5 6 C5.6875 8.0625 5.6875 8.0625 6 10 C6.66 10 7.32 10 8 10 C7.67 10.66 7.34 11.32 7 12 C5.82780457 11.21654285 4.66236332 10.42297164 3.5 9.625 C2.8503125 9.18414062 2.200625 8.74328125 1.53125 8.2890625 C1.0259375 7.86367188 0.520625 7.43828125 0 7 C0 6.34 0 5.68 0 5 C-0.639375 4.896875 -1.27875 4.79375 -1.9375 4.6875 C-2.618125 4.460625 -3.29875 4.23375 -4 4 C-4.33 3.01 -4.66 2.02 -5 1 C-3.35 0.67 -1.7 0.34 0 0 Z " fill="#A4C871" transform="translate(24,331)"/>
<path d="M0 0 C-7.02344662 3.20095134 -14.21800273 5.70332562 -22 6 C-23.35499474 5.37854084 -24.69319037 4.71726622 -26 4 C-25.40461426 3.88406494 -24.80922852 3.76812988 -24.19580078 3.64868164 C-21.50493604 3.12296202 -18.8149682 2.59278705 -16.125 2.0625 C-15.18785156 1.88009766 -14.25070312 1.69769531 -13.28515625 1.50976562 C-12.38925781 1.33251953 -11.49335938 1.15527344 -10.5703125 0.97265625 C-9.74289551 0.81031494 -8.91547852 0.64797363 -8.06298828 0.48071289 C-2.62300178 -0.78690053 -2.62300178 -0.78690053 0 0 Z " fill="#ACCB86" transform="translate(418,303)"/>
<path d="M0 0 C2.79828356 0.38597015 3.8205884 0.80136573 5.75 2.9375 C7 5 7 5 7 7 C7.66 7 8.32 7 9 7 C9 7.66 9 8.32 9 9 C9.66 9 10.32 9 11 9 C11.33 10.32 11.66 11.64 12 13 C11.34 13 10.68 13 10 13 C10 12.34 10 11.68 10 11 C9.01 11 8.02 11 7 11 C7 10.34 7 9.68 7 9 C6.01 8.67 5.02 8.34 4 8 C4 7.34 4 6.68 4 6 C3.34 5.67 2.68 5.34 2 5 C2 4.01 2 3.02 2 2 C1.34 2 0.68 2 0 2 C0 1.34 0 0.68 0 0 Z " fill="#A3C879" transform="translate(480,43)"/>
<path d="M0 0 C0.268125 0.598125 0.53625 1.19625 0.8125 1.8125 C1.88022403 4.04267613 1.88022403 4.04267613 3.625 5.5625 C5 7 5 7 5 10 C6.65 10 8.3 10 10 10 C10 11.32 10 12.64 10 14 C7.625 13.25 7.625 13.25 5 12 C4.31731862 10.67479497 3.6492959 9.34187818 3 8 C1.67405895 7.63837971 0.34061543 7.30271961 -1 7 C-2 4 -2 4 -1.0625 1.8125 C-0.5365625 0.9153125 -0.5365625 0.9153125 0 0 Z " fill="#9CC368" transform="translate(21,453)"/>
<path d="M0 0 C6.67711828 0.93169092 13.33773545 1.96810038 20 3 C20 3.33 20 3.66 20 4 C17.36 4.33 14.72 4.66 12 5 C12 5.33 12 5.66 12 6 C10.02 6 8.04 6 6 6 C6 5.34 6 4.68 6 4 C4.02 3.34 2.04 2.68 0 2 C0 1.34 0 0.68 0 0 Z " fill="#AACE7C" transform="translate(94,388)"/>
<path d="M0 0 C0.99 0.33 1.98 0.66 3 1 C3 2.65 3 4.3 3 6 C3.66 6 4.32 6 5 6 C6.35862973 9.90480249 5.89469712 13.7101776 5.5625 17.75 C5.48418945 18.79607422 5.48418945 18.79607422 5.40429688 19.86328125 C5.27525928 21.57596203 5.13840386 23.28805066 5 25 C4.67 25 4.34 25 4 25 C3.87882812 23.94941406 3.75765625 22.89882813 3.6328125 21.81640625 C2.75978794 14.43873394 1.8049811 7.2199244 0 0 Z " fill="#AACC76" transform="translate(328,267)"/>
<path d="M0 0 C0.33 0.99 0.66 1.98 1 3 C0.01 3.33 -0.98 3.66 -2 4 C-2.33 4.99 -2.66 5.98 -3 7 C-4.98 7.33 -6.96 7.66 -9 8 C-9 8.66 -9 9.32 -9 10 C-10.65 10 -12.3 10 -14 10 C-11.44928686 7.17071068 -8.53378728 5.32106736 -5.3125 3.3125 C-4.31863281 2.68988281 -3.32476562 2.06726563 -2.30078125 1.42578125 C-1.54152344 0.95527344 -0.78226562 0.48476562 0 0 Z " fill="#AECF8E" transform="translate(470,214)"/>
<path d="M0 0 C-0.33 0.66 -0.66 1.32 -1 2 C-5.62784 3.45133444 -10.51459995 3.11172865 -15.3125 3.0625 C-16.14845703 3.05798828 -16.98441406 3.05347656 -17.84570312 3.04882812 C-19.89716649 3.03710548 -21.94859273 3.01917203 -24 3 C-24 2.67 -24 2.34 -24 2 C-21.31306278 1.66148822 -18.62559711 1.329064 -15.9375 1 C-14.80924805 0.85691406 -14.80924805 0.85691406 -13.65820312 0.7109375 C-9.06578683 0.15428098 -4.6257865 -0.09829028 0 0 Z " fill="#AECE84" transform="translate(322,0)"/>
<path d="M0 0 C0.66 0.33 1.32 0.66 2 1 C1.38125 1.5775 0.7625 2.155 0.125 2.75 C-2.04913012 4.8178558 -2.04913012 4.8178558 -3 7.125 C-4.34076674 9.63893763 -5.32656967 10.01505198 -8 11 C-10.65600305 11.7326905 -13.31541765 12.37359745 -16 13 C-14.62961932 10.25923864 -12.52329153 9.57507151 -9.9140625 8.15234375 C-7.99137768 6.99480901 -6.37894688 5.72064224 -4.6875 4.25 C-2 2 -2 2 0 2 C0 1.34 0 0.68 0 0 Z " fill="#ADCF89" transform="translate(289,354)"/>
<path d="M0 0 C-1 3 -1 3 -3.2578125 4.38671875 C-8.75758648 6.88184782 -12.93749213 8.67361199 -19 8 C-15.4914581 6.21980386 -11.93929222 4.54048192 -8.375 2.875 C-7.22773438 2.33617187 -6.08046875 1.79734375 -4.8984375 1.2421875 C-2 0 -2 0 0 0 Z " fill="#A5C87C" transform="translate(448,228)"/>
<path d="M0 0 C6.14154225 0.58490879 12.00679849 1.54066252 18 3 C18 3.66 18 4.32 18 5 C19.32 5 20.64 5 22 5 C22 5.66 22 6.32 22 7 C19.08180761 6.38153536 16.16558978 5.75551865 13.25 5.125 C12.425 4.95097656 11.6 4.77695313 10.75 4.59765625 C9.95078125 4.42363281 9.1515625 4.24960938 8.328125 4.0703125 C7.5949707 3.91320801 6.86181641 3.75610352 6.10644531 3.59423828 C3.89571644 2.97058111 2.01763516 2.08856601 0 1 C0 0.67 0 0.34 0 0 Z " fill="#A1C76E" transform="translate(213,192)"/>
<path d="M0 0 C1.79133978 -0.05391993 3.58313899 -0.09275571 5.375 -0.125 C6.37273437 -0.14820313 7.37046875 -0.17140625 8.3984375 -0.1953125 C11 0 11 0 13 2 C8.52169972 3.43305609 4.76082745 4.44286767 0 4 C-0.66 3.34 -1.32 2.68 -2 2 C-1.34 2 -0.68 2 0 2 C0 1.34 0 0.68 0 0 Z " fill="#8EC04C" transform="translate(418,402)"/>
<path d="M0 0 C0.99 0 1.98 0 3 0 C3.53341184 1.57914015 4.05125763 3.16354387 4.5625 4.75 C4.85253906 5.63171875 5.14257812 6.5134375 5.44140625 7.421875 C6.01697435 10.07834316 5.89248371 11.47031106 5 14 C2.8614515 11.8614515 2.57344937 10.86724686 2 8 C1.01 8.495 1.01 8.495 0 9 C0 6.03 0 3.06 0 0 Z " fill="#9BC56F" transform="translate(0,322)"/>
<path d="M0 0 C0.33 0 0.66 0 1 0 C1.33 2.64 1.66 5.28 2 8 C1.01 8.33 0.02 8.66 -1 9 C-1.66 8.67 -2.32 8.34 -3 8 C-2.67 8.99 -2.34 9.98 -2 11 C-2.99 11 -3.98 11 -5 11 C-5.33 12.32 -5.66 13.64 -6 15 C-6.99 14.67 -7.98 14.34 -9 14 C-8.15115234 12.86111328 -8.15115234 12.86111328 -7.28515625 11.69921875 C-6.18494141 10.20841797 -6.18494141 10.20841797 -5.0625 8.6875 C-4.33160156 7.70136719 -3.60070312 6.71523438 -2.84765625 5.69921875 C-0.87469344 3.08228137 -0.87469344 3.08228137 0 0 Z " fill="#B1D08D" transform="translate(494,311)"/>
<path d="M0 0 C-1.32 0.33 -2.64 0.66 -4 1 C-4 1.66 -4 2.32 -4 3 C-5.72814161 3.19672365 -7.45759197 3.38196799 -9.1875 3.5625 C-10.15042969 3.66691406 -11.11335938 3.77132812 -12.10546875 3.87890625 C-14.94233377 3.99758751 -17.25423671 3.67765639 -20 3 C-20 2.67 -20 2.34 -20 2 C-6.3667426 -0.29612756 -6.3667426 -0.29612756 0 0 Z " fill="#ADCD80" transform="translate(127,209)"/>
<path d="M0 0 C3.33537489 1.11179163 4.63707344 2.47411298 7 5 C5.23358317 5.6987693 3.46167336 6.38366583 1.6875 7.0625 C0.20830078 7.63677734 0.20830078 7.63677734 -1.30078125 8.22265625 C-4 9 -4 9 -7 8 C-6 7 -6 7 -3.4375 6.9375 C-2.2309375 6.9684375 -2.2309375 6.9684375 -1 7 C-1.020625 6.030625 -1.04125 5.06125 -1.0625 4.0625 C-1 1 -1 1 0 0 Z " fill="#A3CB74" transform="translate(241,418)"/>
<path d="M0 0 C-3.9074162 2.02107735 -7.03125939 3.12730698 -11.44921875 3.09765625 C-12.29677734 3.09443359 -13.14433594 3.09121094 -14.01757812 3.08789062 C-14.89865234 3.07951172 -15.77972656 3.07113281 -16.6875 3.0625 C-17.58017578 3.05798828 -18.47285156 3.05347656 -19.39257812 3.04882812 C-21.59511987 3.03704983 -23.79752599 3.02060164 -26 3 C-26 2.67 -26 2.34 -26 2 C-23.16724047 1.66103732 -20.33395339 1.32870306 -17.5 1 C-16.31277344 0.85691406 -16.31277344 0.85691406 -15.1015625 0.7109375 C-10.02970596 0.12892118 -5.10506141 -0.09367085 0 0 Z " fill="#A9CC7C" transform="translate(384,184)"/>
<path d="M0 0 C1.32 0.66 2.64 1.32 4 2 C1.23058394 2.83830973 -1.54035069 3.67082034 -4.3125 4.5 C-5.49102539 4.85771484 -5.49102539 4.85771484 -6.69335938 5.22265625 C-7.45068359 5.44824219 -8.20800781 5.67382812 -8.98828125 5.90625 C-9.68477783 6.11572266 -10.38127441 6.32519531 -11.09887695 6.54101562 C-13 7 -13 7 -16 7 C-16 6.34 -16 5.68 -16 5 C-13.03 4.34 -10.06 3.68 -7 3 C-7 2.67 -7 2.34 -7 2 C-4.69 2 -2.38 2 0 2 C0 1.34 0 0.68 0 0 Z " fill="#A8CD7C" transform="translate(424,153)"/>
<path d="M0 0 C2.92869654 2.82410024 5.58427923 5.72152181 8 9 C8 9.66 8 10.32 8 11 C8.66 11 9.32 11 10 11 C9.67 11.66 9.34 12.32 9 13 C8.34 12.67 7.68 12.34 7 12 C7 11.34 7 10.68 7 10 C5.824375 9.9071875 5.824375 9.9071875 4.625 9.8125 C2 9 2 9 0.6875 6.6875 C0 4 0 4 0 0 Z " fill="#ACCD80" transform="translate(7,399)"/>
<path d="M0 0 C-5.36076281 3.26307302 -10.93607386 6.27199308 -17 8 C-17.99 7.67 -18.98 7.34 -20 7 C-18.02 6.01 -16.04 5.02 -14 4 C-14 3.67 -14 3.34 -14 3 C-12.02 3 -10.04 3 -8 3 C-8 2.01 -8 1.02 -8 0 C-4.94736336 -0.98120464 -3.05263664 -0.98120464 0 0 Z " fill="#A9CB7E" transform="translate(269,351)"/>
<path d="M0 0 C1.13598633 0.00483398 1.13598633 0.00483398 2.29492188 0.00976562 C3.47344727 0.02233398 3.47344727 0.02233398 4.67578125 0.03515625 C5.47306641 0.03966797 6.27035156 0.04417969 7.09179688 0.04882812 C9.05732382 0.06059775 11.0228121 0.07853277 12.98828125 0.09765625 C12.98828125 0.42765625 12.98828125 0.75765625 12.98828125 1.09765625 C10.59296369 1.43510979 8.19713857 1.76773915 5.80078125 2.09765625 C5.12724609 2.19304687 4.45371094 2.2884375 3.75976562 2.38671875 C0.14163548 2.88090238 -3.35968276 3.21111756 -7.01171875 3.09765625 C-7.01171875 2.43765625 -7.01171875 1.77765625 -7.01171875 1.09765625 C-4.30455633 0.19526878 -2.77395107 -0.02085677 0 0 Z " fill="#A5CB7C" transform="translate(376.01171875,350.90234375)"/>
<path d="M0 0 C-4.1689219 3.64780666 -9.44803736 6 -15 6 C-14.67 4.68 -14.34 3.36 -14 2 C-4.58997722 -0.29612756 -4.58997722 -0.29612756 0 0 Z " fill="#AACC76" transform="translate(442,336)"/>
<path d="M0 0 C0.66 0.33 1.32 0.66 2 1 C-0.37518611 4.56277917 -1.3560342 4.69407869 -5.375 5.75 C-6.33148438 6.01296875 -7.28796875 6.2759375 -8.2734375 6.546875 C-10.95575307 6.99264664 -12.46597531 6.88871008 -15 6 C-12.54524486 4.96971956 -10.08685649 3.95054496 -7.625 2.9375 C-6.57699219 2.49567383 -6.57699219 2.49567383 -5.5078125 2.04492188 C-3.69495092 1.30408902 -1.84876857 0.64603036 0 0 Z " fill="#A9CA7F" transform="translate(445,291)"/>
<path d="M0 0 C0.66 0 1.32 0 2 0 C2 2.31 2 4.62 2 7 C1.34 7 0.68 7 0 7 C-0.33 7.99 -0.66 8.98 -1 10 C-1.66 10 -2.32 10 -3 10 C-3.33 10.99 -3.66 11.98 -4 13 C-4.33 12.34 -4.66 11.68 -5 11 C-4.00390625 8.3984375 -4.00390625 8.3984375 -2.5625 5.375 C-2.08941406 4.37210938 -1.61632812 3.36921875 -1.12890625 2.3359375 C-0.75636719 1.56507813 -0.38382812 0.79421875 0 0 Z " fill="#A2C676" transform="translate(498,240)"/>
<path d="M0 0 C0.33 0.99 0.66 1.98 1 3 C-1.58310576 7.59218802 -4.0985062 11.11343245 -9.25 12.6875 C-9.8275 12.790625 -10.405 12.89375 -11 13 C-11 12.34 -11 11.68 -11 11 C-9.35546875 9.4140625 -9.35546875 9.4140625 -7.1875 7.625 C-4.35520187 5.2828081 -2.10737561 3.01813415 0 0 Z " fill="#A3C477" transform="translate(486,136)"/>
<path d="M0 0 C0 0.33 0 0.66 0 1 C-6.97671158 2.40697017 -12.97216188 3.35150733 -20 2 C-20 1.67 -20 1.34 -20 1 C-12.95678017 -0.59295252 -7.14349955 -1.1710655 0 0 Z " fill="#A2C86E" transform="translate(302,4)"/>
<path d="M0 0 C2.64 0.33 5.28 0.66 8 1 C8 2.32 8 3.64 8 5 C8.66 5 9.32 5 10 5 C10.33 5.99 10.66 6.98 11 8 C6.89160936 6.54997977 3.49655387 4.6020866 0 2 C0 1.34 0 0.68 0 0 Z " fill="#A7CA74" transform="translate(30,403)"/>
<path d="M0 0 C0.66 0.33 1.32 0.66 2 1 C2 1.66 2 2.32 2 3 C0.576875 3.6496875 0.576875 3.6496875 -0.875 4.3125 C-4.20041937 5.79302201 -4.20041937 5.79302201 -6 9 C-6.66 8.67 -7.32 8.34 -8 8 C-9.32860925 7.64830932 -10.66158328 7.31229724 -12 7 C-10.04754815 5.80285445 -8.08785003 4.61751926 -6.125 3.4375 C-5.03445312 2.77621094 -3.94390625 2.11492187 -2.8203125 1.43359375 C-1.88960937 0.96050781 -0.95890625 0.48742187 0 0 Z " fill="#A4CA73" transform="translate(49,229)"/>
<path d="M0 0 C0 5.04876875 -2.93203038 8.84303291 -6.25 12.4375 C-7.11625 13.2109375 -7.11625 13.2109375 -8 14 C-8 12.35 -8 10.7 -8 9 C-7.34 9 -6.68 9 -6 9 C-5.34 7.02 -4.68 5.04 -4 3 C-3.34 3 -2.68 3 -2 3 C-2 2.34 -2 1.68 -2 1 C-1.34 0.67 -0.68 0.34 0 0 Z " fill="#A9C97E" transform="translate(307,438)"/>
<path d="M0 0 C0.66 0.33 1.32 0.66 2 1 C2 1.66 2 2.32 2 3 C2.66 3.33 3.32 3.66 4 4 C3.01 5.485 3.01 5.485 2 7 C1.34 7 0.68 7 0 7 C0 7.66 0 8.32 0 9 C-2.5 10.625 -2.5 10.625 -5 12 C-5 10.68 -5 9.36 -5 8 C-4.01 8 -3.02 8 -2 8 C-1.7834375 7.13375 -1.7834375 7.13375 -1.5625 6.25 C-1.04166667 4.16666667 -0.52083333 2.08333333 0 0 Z " fill="#9AC76C" transform="translate(482,178)"/>
<path d="M0 0 C0 0.66 0 1.32 0 2 C-6.35352676 4.03358813 -11.42706544 5.60671734 -18 4 C-18 3.67 -18 3.34 -18 3 C-15.75113762 2.49490792 -13.50086131 1.99610821 -11.25 1.5 C-9.37054688 1.08234375 -9.37054688 1.08234375 -7.453125 0.65625 C-4 0 -4 0 0 0 Z " fill="#A7C677" transform="translate(229,386)"/>
<path d="M0 0 C0.99 0.33 1.98 0.66 3 1 C0.03 3.64 -2.94 6.28 -6 9 C-6.66 8.67 -7.32 8.34 -8 8 C-7.34 6.35 -6.68 4.7 -6 3 C-5.34 3 -4.68 3 -4 3 C-4 2.34 -4 1.68 -4 1 C-2.68 1.33 -1.36 1.66 0 2 C0 1.34 0 0.68 0 0 Z " fill="#A2C670" transform="translate(477,312)"/>
<path d="M0 0 C0.99 0.33 1.98 0.66 3 1 C0.03 4.3 -2.94 7.6 -6 11 C-6.66 10.34 -7.32 9.68 -8 9 C-7.34 9 -6.68 9 -6 9 C-6 7.68 -6 6.36 -6 5 C-4.68 5 -3.36 5 -2 5 C-2.33 4.01 -2.66 3.02 -3 2 C-2.01 1.34 -1.02 0.68 0 0 Z " fill="#A4CA72" transform="translate(486,240)"/>
<path d="M0 0 C0.99 1.485 0.99 1.485 2 3 C2.37640625 3.55558594 2.7528125 4.11117187 3.140625 4.68359375 C4.25 6.4375 4.25 6.4375 6 10 C5.25 12.4375 5.25 12.4375 4 14 C2 12 2 12 1.875 9.375 C1.91625 8.59125 1.9575 7.8075 2 7 C1.34 7 0.68 7 0 7 C0 4.69 0 2.38 0 0 Z " fill="#A2C771" transform="translate(191,120)"/>
<path d="M0 0 C0.99 0 1.98 0 3 0 C1.6062718 4.43458973 -0.60582235 6.87378374 -4 10 C-4.66 8.35 -5.32 6.7 -6 5 C-5.195625 4.54625 -4.39125 4.0925 -3.5625 3.625 C-0.91143428 2.25274335 -0.91143428 2.25274335 0 0 Z " fill="#A3C96E" transform="translate(490,359)"/>
<path d="M0 0 C-0.33 0.99 -0.66 1.98 -1 3 C-2.74784829 3.36463732 -4.49840502 3.7163078 -6.25 4.0625 C-7.71179688 4.35833984 -7.71179688 4.35833984 -9.203125 4.66015625 C-11.868119 4.98397535 -13.48871723 4.85503199 -16 4 C-13.89748139 3.32815382 -11.79292237 2.66269032 -9.6875 2 C-8.51574219 1.62875 -7.34398437 1.2575 -6.13671875 0.875 C-3 0 -3 0 0 0 Z " fill="#B5D28A" transform="translate(425,237)"/>
<path d="M0 0 C0 0.66 0 1.32 0 2 C-1.65 2.66 -3.3 3.32 -5 4 C-5 4.66 -5 5.32 -5 6 C-5.99 6.33 -6.98 6.66 -8 7 C-10.1875 5.5625 -10.1875 5.5625 -12 4 C-10.3767313 3.3291288 -8.75132422 2.66342971 -7.125 2 C-6.22007812 1.62875 -5.31515625 1.2575 -4.3828125 0.875 C-2 0 -2 0 0 0 Z " fill="#A3C977" transform="translate(253,15)"/>
<path d="M0 0 C0.99 0 1.98 0 3 0 C3.96070434 2.88211302 4.10581883 4.69850044 4.0625 7.6875 C4.05347656 8.49574219 4.04445313 9.30398438 4.03515625 10.13671875 C4.02355469 10.75160156 4.01195312 11.36648438 4 12 C0.46209597 8.30827405 0.40884117 4.90609405 0 0 Z " fill="#A5C976" transform="translate(0,362)"/>
<path d="M0 0 C3.3 0.66 6.6 1.32 10 2 C10 2.33 10 2.66 10 3 C4.54538831 4.38529821 -0.36718401 5.2396943 -6 5 C-5.38125 4.731875 -4.7625 4.46375 -4.125 4.1875 C-1.7004767 3.04443152 -1.7004767 3.04443152 0 0 Z " fill="#A1C577" transform="translate(395,346)"/>
<path d="M0 0 C3.96 0.33 7.92 0.66 12 1 C8.83759418 3.10827055 7.49342531 3.33817465 3.8125 3.625 C2.46091797 3.73714844 2.46091797 3.73714844 1.08203125 3.8515625 C0.05142578 3.92503906 0.05142578 3.92503906 -1 4 C-0.67 2.68 -0.34 1.36 0 0 Z " fill="#A4CA6D" transform="translate(209,492)"/>
<path d="M0 0 C7.75 -0.125 7.75 -0.125 10 1 C10 1.66 10 2.32 10 3 C10.66 3.33 11.32 3.66 12 4 C9.5332355 4.88336837 8.36140628 5.1312406 5.859375 4.22265625 C5.16328125 3.83980469 4.4671875 3.45695312 3.75 3.0625 C3.04359375 2.68222656 2.3371875 2.30195313 1.609375 1.91015625 C1.07828125 1.60980469 0.5471875 1.30945313 0 1 C0 0.67 0 0.34 0 0 Z " fill="#A1C771" transform="translate(43,475)"/>
<path d="M0 0 C5.60461531 0.42089996 10.72086547 0.91613111 16 3 C16 3.99 16 4.98 16 6 C10.63904723 4.41078475 5.29156027 2.81027062 0 1 C0 0.67 0 0.34 0 0 Z " fill="#AECF89" transform="translate(245,202)"/>
<path d="M0 0 C-1.45449401 1.0055761 -2.91372443 2.00430435 -4.375 3 C-5.59316406 3.8353125 -5.59316406 3.8353125 -6.8359375 4.6875 C-9 6 -9 6 -11 6 C-11 5.01 -11 4.02 -11 3 C-10.34 3 -9.68 3 -9 3 C-9 2.34 -9 1.68 -9 1 C-5.47051709 -0.66670026 -3.71727674 -1.13583456 0 0 Z " fill="#ACCC7D" transform="translate(468,198)"/>
<path d="M0 0 C3.08494591 1.0283153 4.08268479 1.47262996 6 4 C6.6875 7.1875 6.6875 7.1875 7 10 C6.01 10.495 6.01 10.495 5 11 C4.16151196 9.54462432 3.32936066 8.08559627 2.5 6.625 C1.80390625 5.40683594 1.80390625 5.40683594 1.09375 4.1640625 C0 2 0 2 0 0 Z " fill="#A6C97A" transform="translate(190,101)"/>
<path d="M0 0 C-1.76755526 0.84026396 -3.53917263 1.67198722 -5.3125 2.5 C-6.79169922 3.19609375 -6.79169922 3.19609375 -8.30078125 3.90625 C-11 5 -11 5 -14 5 C-13.67 4.01 -13.34 3.02 -13 2 C-11.02 2 -9.04 2 -7 2 C-7 1.34 -7 0.68 -7 0 C-3.86650268 -1.04449911 -3.01031744 -0.93423645 0 0 Z " fill="#A5CB7E" transform="translate(263,479)"/>
<path d="M0 0 C-0.66 0 -1.32 0 -2 0 C-2 0.66 -2 1.32 -2 2 C-3.53125 3.2890625 -3.53125 3.2890625 -5.5 4.625 C-6.1496875 5.07101562 -6.799375 5.51703125 -7.46875 5.9765625 C-7.9740625 6.31429688 -8.479375 6.65203125 -9 7 C-9.66 6.01 -10.32 5.02 -11 4 C-9.68 4 -8.36 4 -7 4 C-7.33 3.01 -7.66 2.02 -8 1 C-3.375 -1.125 -3.375 -1.125 0 0 Z " fill="#A1C872" transform="translate(293,459)"/>
<path d="M0 0 C4.75 1.875 4.75 1.875 7 3 C7 3.66 7 4.32 7 5 C7.66 5 8.32 5 9 5 C9.33 6.65 9.66 8.3 10 10 C2.51708428 3.84965831 2.51708428 3.84965831 0 0 Z " fill="#B0CD80" transform="translate(13,389)"/>
<path d="M0 0 C4.62 1.65 9.24 3.3 14 5 C14 5.33 14 5.66 14 6 C4.19156581 5.38029501 4.19156581 5.38029501 0 2 C0 1.34 0 0.68 0 0 Z " fill="#AAC983" transform="translate(245,222)"/>
<path d="M0 0 C0.66 0 1.32 0 2 0 C2.33 0.66 2.66 1.32 3 2 C4.97522846 3.04808041 6.97481509 4.0520411 9 5 C9 6.65 9 8.3 9 10 C7.86800647 9.0919838 6.74467637 8.17316174 5.625 7.25 C4.99851563 6.73953125 4.37203125 6.2290625 3.7265625 5.703125 C1.91687682 3.91800519 0.99882545 2.32050356 0 0 Z " fill="#A8CD7C" transform="translate(198,177)"/>
<path d="M0 0 C-1.98 2.31 -3.96 4.62 -6 7 C-6.33 5.68 -6.66 4.36 -7 3 C-7.66 2.67 -8.32 2.34 -9 2 C-5.5647952 -0.29013653 -4.014669 -0.17842973 0 0 Z " fill="#9EC76E" transform="translate(482,123)"/>
<path d="M0 0 C2.21736634 1.10868317 4.03617993 2.49440461 6 4 C5.67 5.32 5.34 6.64 5 8 C5.99 8.33 6.98 8.66 8 9 C7.34 9.66 6.68 10.32 6 11 C4.99126984 9.73608512 3.99328178 8.46359117 3 7.1875 C2.443125 6.47980469 1.88625 5.77210938 1.3125 5.04296875 C0 3 0 3 0 0 Z " fill="#A9CB79" transform="translate(5,376)"/>
<path d="M0 0 C0.99 0 1.98 0 3 0 C1.90580334 4.37678665 0.82809962 7.4978054 -2 11 C-1.85957123 9.35369672 -1.71250671 7.70795821 -1.5625 6.0625 C-1.48128906 5.14597656 -1.40007812 4.22945313 -1.31640625 3.28515625 C-1 1 -1 1 0 0 Z " fill="#A7C679" transform="translate(308,368)"/>
<path d="M0 0 C0.66 0 1.32 0 2 0 C2 2.64 2 5.28 2 8 C0.35 8.33 -1.3 8.66 -3 9 C-2.01 6.03 -1.02 3.06 0 0 Z " fill="#A6C37D" transform="translate(498,302)"/>
<path d="M0 0 C5.52677733 -0.19392201 9.75614911 0.2520497 15 2 C12.05897771 2.84604751 9.43233732 3.13522521 6.375 3.125 C5.59898437 3.12757813 4.82296875 3.13015625 4.0234375 3.1328125 C2 3 2 3 0 2 C0 1.34 0 0.68 0 0 Z " fill="#A6CB78" transform="translate(208,213)"/>
<path d="M0 0 C0.66 0 1.32 0 2 0 C1.67 2.64 1.34 5.28 1 8 C0.01 8 -0.98 8 -2 8 C-2 8.66 -2 9.32 -2 10 C-2.99 9.67 -3.98 9.34 -5 9 C-4.67 8.34 -4.34 7.68 -4 7 C-3.01 7 -2.02 7 -1 7 C-0.67 4.69 -0.34 2.38 0 0 Z " fill="#9EC96D" transform="translate(498,91)"/>
<path d="M0 0 C1.60379341 -0.05416188 3.20811406 -0.09286638 4.8125 -0.125 C5.70582031 -0.14820313 6.59914063 -0.17140625 7.51953125 -0.1953125 C10 0 10 0 13 2 C8.15507803 3.51403812 4.7408989 2.36602172 0 1 C0 0.67 0 0.34 0 0 Z " fill="#A1C877" transform="translate(95,431)"/>
<path d="M0 0 C0.99 0.33 1.98 0.66 3 1 C2.34 2.65 1.68 4.3 1 6 C0.01 6 -0.98 6 -2 6 C-2.33 4.68 -2.66 3.36 -3 2 C-2.01 1.34 -1.02 0.68 0 0 Z " fill="#9CC963" transform="translate(5,431)"/>
<path d="M0 0 C1.32 0.33 2.64 0.66 4 1 C3.39009109 4.55780196 2.4216319 7.6828589 1 11 C0.67 11 0.34 11 0 11 C0 7.37 0 3.74 0 0 Z " fill="#ABD080" transform="translate(308,427)"/>
<path d="M0 0 C1.65 0 3.3 0 5 0 C1.59287819 3.97497544 -2.32760855 5.86793788 -7 8 C-7 7.01 -7 6.02 -7 5 C-6.01 5 -5.02 5 -4 5 C-4 4.34 -4 3.68 -4 3 C-2.68 3 -1.36 3 0 3 C0 2.01 0 1.02 0 0 Z " fill="#B3CE8C" transform="translate(273,407)"/>
<path d="M0 0 C2.6015625 -0.29296875 2.6015625 -0.29296875 5.625 -0.1875 C7.12933594 -0.14689453 7.12933594 -0.14689453 8.6640625 -0.10546875 C9.43492187 -0.07066406 10.20578125 -0.03585937 11 0 C8.03821227 1.67110042 5.62928808 2.32682752 2.25 2.625 C1.45078125 2.69976562 0.6515625 2.77453125 -0.171875 2.8515625 C-0.77515625 2.90054687 -1.3784375 2.94953125 -2 3 C-1.34 2.01 -0.68 1.02 0 0 Z " fill="#A6CC7C" transform="translate(214,367)"/>
<path d="M0 0 C-0.99 2.97 -1.98 5.94 -3 9 C-3.33 8.01 -3.66 7.02 -4 6 C-4.66 6 -5.32 6 -6 6 C-5.6875 4.125 -5.6875 4.125 -5 2 C-2 0 -2 0 0 0 Z " fill="#9EC66F" transform="translate(498,224)"/>
<path d="M0 0 C-0.99 0.33 -1.98 0.66 -3 1 C-3.33 1.99 -3.66 2.98 -4 4 C-7.3 4 -10.6 4 -14 4 C-11.37350692 2.24900461 -9.38191413 1.30690675 -6.4375 0.3125 C-5.65246094 0.04050781 -4.86742187 -0.23148437 -4.05859375 -0.51171875 C-2 -1 -2 -1 0 0 Z " fill="#A5C778" transform="translate(250,442)"/>
<path d="M0 0 C-4.625 4.875 -4.625 4.875 -8 6 C-8.33 5.01 -8.66 4.02 -9 3 C-5.92807025 0.26939578 -4.09590633 -0.34132553 0 0 Z " fill="#9CC466" transform="translate(289,399)"/>
<path d="M0 0 C-1.28813342 0.83878455 -2.58063256 1.67086783 -3.875 2.5 C-4.59429687 2.9640625 -5.31359375 3.428125 -6.0546875 3.90625 C-8 5 -8 5 -10 5 C-10 4.01 -10 3.02 -10 2 C-4.10714286 -1.34821429 -4.10714286 -1.34821429 0 0 Z " fill="#ACCC80" transform="translate(469,385)"/>
<path d="M0 0 C0.33 0 0.66 0 1 0 C1.07654536 4.51617599 1.10228696 8.59085217 0 13 C-2.215015 9.6774775 -2.19410876 9.12268409 -1.6875 5.375 C-1.58824219 4.57835937 -1.48898437 3.78171875 -1.38671875 2.9609375 C-1 1 -1 1 0 0 Z " fill="#A8C879" transform="translate(312,355)"/>
<path d="M0 0 C4.81938524 -0.23509196 8.46298506 0.54815522 13 2 C13 2.33 13 2.66 13 3 C3.58997722 3.18451025 3.58997722 3.18451025 -1 2 C-0.67 1.34 -0.34 0.68 0 0 Z " fill="#A9CC82" transform="translate(300,225)"/>
<path d="M0 0 C0.75 1.5625 0.75 1.5625 1 4 C-0.13084437 6.50286409 -1.52139516 8.67007722 -3 11 C-3.66 11 -4.32 11 -5 11 C-5 11.66 -5 12.32 -5 13 C-5.66 12.67 -6.32 12.34 -7 12 C-6.57847656 11.38511719 -6.15695312 10.77023438 -5.72265625 10.13671875 C-4.90087891 8.92435547 -4.90087891 8.92435547 -4.0625 7.6875 C-3.51722656 6.88699219 -2.97195313 6.08648437 -2.41015625 5.26171875 C-0.86162674 2.9741857 -0.86162674 2.9741857 0 0 Z " fill="#A8CD80" transform="translate(494,186)"/>
<path d="M0 0 C0.99 0.33 1.98 0.66 3 1 C3.73046875 3.06640625 3.73046875 3.06640625 4.1875 5.5625 C4.34605469 6.38878906 4.50460938 7.21507812 4.66796875 8.06640625 C4.77753906 8.70449219 4.88710937 9.34257812 5 10 C1.32769295 6.92000054 0.43197635 4.7517398 0 0 Z " fill="#A5CA77" transform="translate(189,160)"/>
<path d="M0 0 C1.65 0 3.3 0 5 0 C4.67 1.65 4.34 3.3 4 5 C2.35 4.67 0.7 4.34 -1 4 C-0.67 2.68 -0.34 1.36 0 0 Z " fill="#94C560" transform="translate(218,130)"/>
<path d="M0 0 C2 0.3125 2 0.3125 4 1 C4.33 1.66 4.66 2.32 5 3 C3.625 4.5 3.625 4.5 2 6 C1.34 6 0.68 6 0 6 C-0.38218767 4.34385343 -0.71395102 2.67542976 -1 1 C-0.67 0.67 -0.34 0.34 0 0 Z " fill="#95C262" transform="translate(472,375)"/>
<path d="M0 0 C0.66 1.32 1.32 2.64 2 4 C1.01 4.495 1.01 4.495 0 5 C-0.99 4.67 -1.98 4.34 -3 4 C-3.66 5.32 -4.32 6.64 -5 8 C-5.66 7.34 -6.32 6.68 -7 6 C-5.625 4.5 -5.625 4.5 -4 3 C-3.34 3 -2.68 3 -2 3 C-2 2.34 -2 1.68 -2 1 C-1.34 0.67 -0.68 0.34 0 0 Z " fill="#A7CA79" transform="translate(477,271)"/>
<path d="M0 0 C-2.64 1.65 -5.28 3.3 -8 5 C-8.33 3.68 -8.66 2.36 -9 1 C-5.19495213 -0.79682816 -4.29399165 -1.07349791 0 0 Z " fill="#A9CC7F" transform="translate(469,260)"/>
<path d="M0 0 C-0.639375 0.28875 -1.27875 0.5775 -1.9375 0.875 C-4.15206079 1.82823451 -4.15206079 1.82823451 -5 4 C-7.31 3.67 -9.62 3.34 -12 3 C-8.62803192 -0.37196808 -4.5120049 -1.50400163 0 0 Z " fill="#A8CA7E" transform="translate(81,219)"/>
<path d="M0 0 C-2.88628401 1.57554035 -5.53342384 2.46276373 -8.75 3.125 C-9.94882812 3.37636719 -9.94882812 3.37636719 -11.171875 3.6328125 C-11.77515625 3.75398437 -12.3784375 3.87515625 -13 4 C-13 3.01 -13 2.02 -13 1 C-8.62426048 0.40667939 -4.42471556 -0.13827236 0 0 Z " fill="#ACCD85" transform="translate(424,218)"/>
<path d="M0 0 C1.98 0 3.96 0 6 0 C6 0.66 6 1.32 6 2 C7.98 1.67 9.96 1.34 12 1 C11.67 2.32 11.34 3.64 11 5 C7.27566618 3.7874262 3.62197194 2.49140021 0 1 C0 0.67 0 0.34 0 0 Z " fill="#A7CA80" transform="translate(265,210)"/>
<path d="M0 0 C4.29 0.66 8.58 1.32 13 2 C13 2.33 13 2.66 13 3 C7.96488101 4.0070238 4.76052962 3.97387813 0 2 C0 1.34 0 0.68 0 0 Z " fill="#ADCB83" transform="translate(282,180)"/>
<path d="M0 0 C3.3 0.99 6.6 1.98 10 3 C9.67 3.99 9.34 4.98 9 6 C7.68 6 6.36 6 5 6 C4.67 5.34 4.34 4.68 4 4 C1.98330173 2.86649466 1.98330173 2.86649466 0 2 C0 1.34 0 0.68 0 0 Z " fill="#B0D085" transform="translate(246,168)"/>
<path d="M0 0 C5.94 2.475 5.94 2.475 12 5 C7.93890631 6.01527342 7.33033162 6.05430484 3.75 4.5625 C3.04359375 4.27503906 2.3371875 3.98757812 1.609375 3.69140625 C1.07828125 3.46324219 0.5471875 3.23507813 0 3 C0 2.01 0 1.02 0 0 Z " fill="#ADCC85" transform="translate(233,162)"/>
<path d="M0 0 C2.475 0.99 2.475 0.99 5 2 C-0.14285714 7.57142857 -0.14285714 7.57142857 -4 8 C-4.33 7.34 -4.66 6.68 -5 6 C-3.68 6 -2.36 6 -1 6 C-0.67 4.02 -0.34 2.04 0 0 Z " fill="#A9CF81" transform="translate(465,131)"/>
<path d="M0 0 C1.98 1.65 3.96 3.3 6 5 C5.67 5.66 5.34 6.32 5 7 C4.01 7 3.02 7 2 7 C2 6.01 2 5.02 2 4 C1.01 3.67 0.02 3.34 -1 3 C-0.67 2.01 -0.34 1.02 0 0 Z " fill="#A0CA6E" transform="translate(17,412)"/>
<path d="M0 0 C0.33 1.32 0.66 2.64 1 4 C0.34 4.66 -0.32 5.32 -1 6 C-1.70710678 7.64991582 -2.37943989 9.31562256 -3 11 C-3.99 10.67 -4.98 10.34 -6 10 C-4.02 6.7 -2.04 3.4 0 0 Z " fill="#AECA84" transform="translate(307,394)"/>
<path d="M0 0 C1.32 0.66 2.64 1.32 4 2 C2.71349294 2.69710731 1.42059335 3.38242876 0.125 4.0625 C-0.95394531 4.63677734 -0.95394531 4.63677734 -2.0546875 5.22265625 C-2.69664062 5.47917969 -3.33859375 5.73570312 -4 6 C-4.66 5.67 -5.32 5.34 -6 5 C-5.67 4.01 -5.34 3.02 -5 2 C-3.35 1.67 -1.7 1.34 0 1 C0 0.67 0 0.34 0 0 Z " fill="#AAD07E" transform="translate(448,393)"/>
<path d="M0 0 C-0.33 1.65 -0.66 3.3 -1 5 C-3.97 4.67 -6.94 4.34 -10 4 C-8.68 3.34 -7.36 2.68 -6 2 C-5.29875 1.62875 -4.5975 1.2575 -3.875 0.875 C-2 0 -2 0 0 0 Z " fill="#A5CA72" transform="translate(253,377)"/>
<path d="M0 0 C1 2 1 2 0.0625 5.125 C-0.288125 6.07375 -0.63875 7.0225 -1 8 C-1.33 7.34 -1.66 6.68 -2 6 C-3.65 6.66 -5.3 7.32 -7 8 C-6.02133662 6.85373678 -5.04205413 5.70800212 -4.0625 4.5625 C-3.51722656 3.92441406 -2.97195313 3.28632813 -2.41015625 2.62890625 C-1.63204305 1.73008851 -0.84063472 0.84063472 0 0 Z " fill="#B6D28B" transform="translate(484,326)"/>
<path d="M0 0 C2.31 0 4.62 0 7 0 C7 0.66 7 1.32 7 2 C7.66 2.33 8.32 2.66 9 3 C8.67 3.66 8.34 4.32 8 5 C4.62496331 3.8141763 2.35277269 2.72426311 0 0 Z " fill="#A9CD80" transform="translate(281,218)"/>
<path d="M0 0 C4.38889325 0.66498383 7.9811485 2.18757677 12 4 C12 4.33 12 4.66 12 5 C6.72209903 5.50265724 4.13774748 4.25108731 0 1 C0 0.67 0 0.34 0 0 Z " fill="#B2D18D" transform="translate(430,13)"/>
<path d="M0 0 C1.32 0.99 2.64 1.98 4 3 C3.67 4.32 3.34 5.64 3 7 C0.53199953 5.84826645 -1.04783565 4.95216435 -3 3 C-2.01 2.67 -1.02 2.34 0 2 C0 1.34 0 0.68 0 0 Z " fill="#A4C86B" transform="translate(35,465)"/>
<path d="M0 0 C0.33 0.99 0.66 1.98 1 3 C0.01 3.33 -0.98 3.66 -2 4 C-2.33 4.99 -2.66 5.98 -3 7 C-3.99 7.33 -4.98 7.66 -6 8 C-4.73058503 4.08597051 -3.48832306 2.20927127 0 0 Z " fill="#9EC76D" transform="translate(470,214)"/>
<path d="M0 0 C0.33 0.99 0.66 1.98 1 3 C-2.69541586 3.95024979 -5.30458414 3.95024979 -9 3 C-5.87496336 0.91664224 -3.72863529 0 0 0 Z " fill="#A2CA74" transform="translate(420,176)"/>
<path d="M0 0 C0.33 1.32 0.66 2.64 1 4 C-2.63 4 -6.26 4 -10 4 C-8.68 3.34 -7.36 2.68 -6 2 C-5.29875 1.62875 -4.5975 1.2575 -3.875 0.875 C-2 0 -2 0 0 0 Z " fill="#A8CC7B" transform="translate(442,168)"/>
<path d="M0 0 C0 3.20395416 -0.74335022 5.09399739 -2 8 C-2.66 8 -3.32 8 -4 8 C-4.33 8.66 -4.66 9.32 -5 10 C-5 4.69520066 -3.4637943 3.81017373 0 0 Z " fill="#B0CF81" transform="translate(203,45)"/>
<path d="M0 0 C-1.90401138 1.90401138 -3.33425686 2.93520439 -6.046875 3.19921875 C-8.03233273 3.1886578 -10.0169914 3.09915043 -12 3 C-8.61613364 -0.38386636 -4.56431325 -1.75550509 0 0 Z " fill="#A6CD78" transform="translate(265,12)"/>
<path d="M0 0 C1.2065625 0.0309375 1.2065625 0.0309375 2.4375 0.0625 C0.79580472 2.08304804 -0.87161778 4.08293058 -2.5625 6.0625 C-2.8925 6.0625 -3.2225 6.0625 -3.5625 6.0625 C-3.605221 4.39638095 -3.60313832 2.72867115 -3.5625 1.0625 C-2.5625 0.0625 -2.5625 0.0625 0 0 Z " fill="#ADCB6E" transform="translate(296.5625,451.9375)"/>
<path d="M0 0 C0 2.66666667 0 5.33333333 0 8 C-1.65 6.35 -3.3 4.7 -5 3 C-4.360625 2.690625 -3.72125 2.38125 -3.0625 2.0625 C-1.06389179 1.1654837 -1.06389179 1.1654837 0 0 Z " fill="#9CC76A" transform="translate(15,445)"/>
<path d="M0 0 C1.98 1.65 3.96 3.3 6 5 C3.92446352 5.5534764 2.15634036 6 0 6 C0 4.02 0 2.04 0 0 Z " fill="#AACD7D" transform="translate(13,345)"/>
<path d="M0 0 C0.66 0 1.32 0 2 0 C1.67 1.98 1.34 3.96 1 6 C-0.65 6.33 -2.3 6.66 -4 7 C-3.34 5.68 -2.68 4.36 -2 3 C-1.34 3 -0.68 3 0 3 C0 2.01 0 1.02 0 0 Z " fill="#B0CF89" transform="translate(300,342)"/>
<path d="M0 0 C0.33 0.66 0.66 1.32 1 2 C3.02463255 2.65213292 3.02463255 2.65213292 5 3 C5 3.99 5 4.98 5 6 C2.36 4.68 -0.28 3.36 -3 2 C-2.01 1.34 -1.02 0.68 0 0 Z " fill="#A5C974" transform="translate(38,344)"/>
<path d="M0 0 C1.32 0 2.64 0 4 0 C3 3 3 3 -0.0625 4.6875 C-1.031875 5.120625 -2.00125 5.55375 -3 6 C-2.67 4.68 -2.34 3.36 -2 2 C-1.34 2 -0.68 2 0 2 C0 1.34 0 0.68 0 0 Z " fill="#A9CA80" transform="translate(278,341)"/>
<path d="M0 0 C0 0.66 0 1.32 0 2 C-8.03571429 4.27678571 -8.03571429 4.27678571 -12 3 C-10.56445975 2.49440092 -9.1264798 1.9957251 -7.6875 1.5 C-6.88699219 1.2215625 -6.08648437 0.943125 -5.26171875 0.65625 C-3 0 -3 0 0 0 Z " fill="#AACA82" transform="translate(430,298)"/>
<path d="M0 0 C2.97 1.65 5.94 3.3 9 5 C8.01 5.66 7.02 6.32 6 7 C6 6.34 6 5.68 6 5 C4.02 5 2.04 5 0 5 C0 3.35 0 1.7 0 0 Z " fill="#A6C97D" transform="translate(219,153)"/>
<path d="M0 0 C6.625 0.75 6.625 0.75 10 3 C8.02 3.99 8.02 3.99 6 5 C3.98079663 3.69593116 1.98075027 2.36176581 0 1 C0 0.67 0 0.34 0 0 Z " fill="#B1D184" transform="translate(220,135)"/>
<path d="M0 0 C1.85776765 3.13498292 2.20140476 5.37471432 2 9 C1.01 9.495 1.01 9.495 0 10 C-1.125 3.375 -1.125 3.375 0 0 Z " fill="#AACB80" transform="translate(498,67)"/>
<path d="M0 0 C4.02992782 0.55312735 8.02022924 1.1558062 12 2 C12 2.33 12 2.66 12 3 C3.42857143 3.14285714 3.42857143 3.14285714 0 2 C0 1.34 0 0.68 0 0 Z " fill="#A7C87B" transform="translate(408,7)"/>
<path d="M0 0 C2.64 0 5.28 0 8 0 C8.33 0.99 8.66 1.98 9 3 C7.02 3 5.04 3 3 3 C3 2.34 3 1.68 3 1 C2.01 0.67 1.02 0.34 0 0 Z " fill="#A3CE71" transform="translate(364,0)"/>
<path d="M0 0 C0.79921875 0.20367187 1.5984375 0.40734375 2.421875 0.6171875 C3.02515625 0.78476562 3.6284375 0.95234375 4.25 1.125 C4.25 1.455 4.25 1.785 4.25 2.125 C-0.26617599 2.20154536 -4.34085217 2.22728696 -8.75 1.125 C-5.45750312 -0.91393155 -3.7130065 -0.98285466 0 0 Z " fill="#B8D799" transform="translate(119.75,496.875)"/>
<path d="M0 0 C5.75 1.75 5.75 1.75 8 4 C5.69 4 3.38 4 1 4 C0.67 2.68 0.34 1.36 0 0 Z " fill="#A2C97B" transform="translate(43,432)"/>
<path d="M0 0 C2.31 1.65 4.62 3.3 7 5 C3 6 3 6 0.75 5.0625 C0.1725 4.711875 -0.405 4.36125 -1 4 C-0.67 2.68 -0.34 1.36 0 0 Z " fill="#ABCE7E" transform="translate(24,418)"/>
<path d="M0 0 C2.31 0.33 4.62 0.66 7 1 C3.81237635 3.12508244 1.73487777 3.5020163 -2 4 C-1.34 2.68 -0.68 1.36 0 0 Z " fill="#A5C770" transform="translate(424,402)"/>
<path d="M0 0 C0.556875 0.226875 1.11375 0.45375 1.6875 0.6875 C-1.51586822 3.52124881 -4.09337253 4.2080537 -8.3125 4.6875 C-6.63215242 1.32680485 -3.76400767 -0.50864968 0 0 Z " fill="#ACCC7C" transform="translate(281.3125,362.3125)"/>
<path d="M0 0 C2.97 0.33 5.94 0.66 9 1 C9.33 1.99 9.66 2.98 10 4 C6.7 3.01 3.4 2.02 0 1 C0 0.67 0 0.34 0 0 Z " fill="#A7C879" transform="translate(72,362)"/>
<path d="M0 0 C0.66 0.33 1.32 0.66 2 1 C0.70525365 3.58949269 -0.32663393 3.96035764 -3 5 C-5.75 5.125 -5.75 5.125 -8 5 C-5.45378681 2.99940392 -3.01962385 1.20784954 0 0 Z " fill="#ADCC79" transform="translate(452,350)"/>
<path d="M0 0 C0.99 0.33 1.98 0.66 3 1 C1.71034824 2.37562854 0.37310707 3.70766393 -1 5 C-1.66 5 -2.32 5 -3 5 C-3.33 5.66 -3.66 6.32 -4 7 C-4.33 6.01 -4.66 5.02 -5 4 C-4.67 3.34 -4.34 2.68 -4 2 C-2.68 2 -1.36 2 0 2 C0 1.34 0 0.68 0 0 Z " fill="#A4C978" transform="translate(294,329)"/>
<path d="M0 0 C0.33 0 0.66 0 1 0 C1.33 2.64 1.66 5.28 2 8 C1.01 8.33 0.02 8.66 -1 9 C-1.80967438 6.08517222 -2.21845993 4.53886783 -1.0625 1.6875 C-0.711875 1.130625 -0.36125 0.57375 0 0 Z " fill="#A0CB6E" transform="translate(494,311)"/>
<path d="M0 0 C0.66 0 1.32 0 2 0 C1.34 3.3 0.68 6.6 0 10 C-0.33 10 -0.66 10 -1 10 C-1.125 2.25 -1.125 2.25 0 0 Z " fill="#A4CA7B" transform="translate(498,279)"/>
<path d="M0 0 C0.66 0 1.32 0 2 0 C2 2.64 2 5.28 2 8 C1.67 7.34 1.34 6.68 1 6 C0.01 6.33 -0.98 6.66 -2 7 C-1.34 4.69 -0.68 2.38 0 0 Z " fill="#A5C56B" transform="translate(498,114)"/>
<path d="M0 0 C1.32 0.33 2.64 0.66 4 1 C4.66 3.31 5.32 5.62 6 8 C5.34 8 4.68 8 4 8 C4 7.34 4 6.68 4 6 C3.34 5.67 2.68 5.34 2 5 C2 4.01 2 3.02 2 2 C1.34 2 0.68 2 0 2 C0 1.34 0 0.68 0 0 Z " fill="#9AC36B" transform="translate(480,43)"/>
<path d="M0 0 C3.51005335 1.6380249 6.45543849 3.03134491 9 6 C7.68 6 6.36 6 5 6 C5 5.34 5 4.68 5 4 C3.35 3.67 1.7 3.34 0 3 C0 2.01 0 1.02 0 0 Z " fill="#A8CC82" transform="translate(459,26)"/>
<path d="M0 0 C-1.29009643 0.50403768 -2.58213789 1.00309926 -3.875 1.5 C-4.95394531 1.91765625 -4.95394531 1.91765625 -6.0546875 2.34375 C-8 3 -8 3 -10 3 C-9.67 2.01 -9.34 1.02 -9 0 C-3.375 -1.125 -3.375 -1.125 0 0 Z " fill="#A8CC77" transform="translate(249,485)"/>
<path d="M0 0 C2.31 0.33 4.62 0.66 7 1 C7 2.32 7 3.64 7 5 C3.34683329 3.75023244 2.21934164 3.32901247 0 0 Z " fill="#A9CC7F" transform="translate(24,462)"/>
<path d="M0 0 C-0.33 1.65 -0.66 3.3 -1 5 C-1.66 4.67 -2.32 4.34 -3 4 C-3 3.67 -3 3.34 -3 3 C-4.65 2.67 -6.3 2.34 -8 2 C-4.77208445 -0.1519437 -3.71599191 -0.20086443 0 0 Z " fill="#9AC565" transform="translate(431,361)"/>
<path d="M0 0 C0.66 0.33 1.32 0.66 2 1 C1.67 2.32 1.34 3.64 1 5 C-1.97 4.505 -1.97 4.505 -5 4 C-3.35 2.68 -1.7 1.36 0 0 Z " fill="#A3C979" transform="translate(468,278)"/>
<path d="M0 0 C0.7425 0.0825 1.485 0.165 2.25 0.25 C0.27579865 2.77259061 -0.71745642 3.2429808 -3.9375 3.9375 C-5.3296875 4.0921875 -5.3296875 4.0921875 -6.75 4.25 C-3.42692308 0.31153846 -3.42692308 0.31153846 0 0 Z " fill="#AECF89" transform="translate(444.75,270.75)"/>
<path d="M0 0 C0 2.97 0 5.94 0 9 C-2.62386487 5.93882432 -3 5.26826873 -3 1 C-1 0 -1 0 0 0 Z " fill="#99C46C" transform="translate(324,250)"/>
<path d="M0 0 C2.31 1.65 4.62 3.3 7 5 C6.34 5.66 5.68 6.32 5 7 C4.01 6.67 3.02 6.34 2 6 C2 5.01 2 4.02 2 3 C1.34 3 0.68 3 0 3 C0 2.01 0 1.02 0 0 Z " fill="#A2C674" transform="translate(282,241)"/>
<path d="M0 0 C-1.90401138 1.90401138 -3.33425686 2.93520439 -6.046875 3.19921875 C-8.03233273 3.1886578 -10.0169914 3.09915043 -12 3 C-12 2.67 -12 2.34 -12 2 C-10.37787941 1.47026689 -8.75218416 0.95146893 -7.125 0.4375 C-6.22007812 0.14746094 -5.31515625 -0.14257812 -4.3828125 -0.44140625 C-2 -1 -2 -1 0 0 Z " fill="#AFCC8C" transform="translate(432,173)"/>
<path d="M0 0 C1 3 1 3 0 6 C-0.66 6 -1.32 6 -2 6 C-2 6.99 -2 7.98 -2 9 C-2.99 9.33 -3.98 9.66 -5 10 C-5 9.34 -5 8.68 -5 8 C-4.34 8 -3.68 8 -3 8 C-2.87625 7.4225 -2.7525 6.845 -2.625 6.25 C-1.99351176 3.97664233 -1.11141809 2.0746471 0 0 Z " fill="#B5D591" transform="translate(495,122)"/>
<path d="M0 0 C0.33 0 0.66 0 1 0 C0.67 3.63 0.34 7.26 0 11 C-0.66 10.34 -1.32 9.68 -2 9 C-1.66083005 5.81180248 -1.01406317 3.04218951 0 0 Z " fill="#AACA7D" transform="translate(190,64)"/>
<path d="M0 0 C1.98 0.66 3.96 1.32 6 2 C6 2.99 6 3.98 6 5 C5.01 5 4.02 5 3 5 C3 4.01 3 3.02 3 2 C1.68 1.67 0.36 1.34 -1 1 C-0.67 0.67 -0.34 0.34 0 0 Z " fill="#9AC472" transform="translate(77,446)"/>
<path d="M0 0 C-3.22515763 1.73662334 -6.51329166 2.8905928 -10 4 C-9.67 3.01 -9.34 2.02 -9 1 C-6.04335481 -0.4783226 -3.25770263 -0.06032783 0 0 Z " fill="#AACE80" transform="translate(442,399)"/>
<path d="M0 0 C0 0.99 0 1.98 0 3 C-3.33333333 6 -3.33333333 6 -6 6 C-4.95125002 3.37812506 -4.35068687 2.20628639 -1.875 0.75 C-1.25625 0.5025 -0.6375 0.255 0 0 Z " fill="#98C165" transform="translate(480,332)"/>
<path d="M0 0 C0.66 1.32 1.32 2.64 2 4 C0.68 4.99 -0.64 5.98 -2 7 C-2.125 4.625 -2.125 4.625 -2 2 C-1.34 1.34 -0.68 0.68 0 0 Z " fill="#AECF7E" transform="translate(299,322)"/>
<path d="M0 0 C-2.3125 1.5625 -2.3125 1.5625 -5 3 C-5.99 2.67 -6.98 2.34 -8 2 C-8 1.34 -8 0.68 -8 0 C-4.71303767 -0.79953138 -3.28976808 -1.09658936 0 0 Z " fill="#A3C775" transform="translate(459,266)"/>
<path d="M0 0 C2.97 0 5.94 0 9 0 C9.33 0.99 9.66 1.98 10 3 C6.7 2.34 3.4 1.68 0 1 C0 0.67 0 0.34 0 0 Z " fill="#B3D68D" transform="translate(235,199)"/>
<path d="M0 0 C2.375 0.3125 2.375 0.3125 5 1 C5.66 1.99 6.32 2.98 7 4 C5.68 4 4.36 4 3 4 C1.25 2 1.25 2 0 0 Z " fill="#B0CF86" transform="translate(207,187)"/>
<path d="M0 0 C0.66 0 1.32 0 2 0 C2.1875 2.375 2.1875 2.375 2 5 C1.01 5.66 0.02 6.32 -1 7 C-1.04254356 5.00045254 -1.04080783 2.99958364 -1 1 C-0.67 0.67 -0.34 0.34 0 0 Z " fill="#9BC861" transform="translate(487,174)"/>
<path d="M0 0 C2.97 0.495 2.97 0.495 6 1 C6 1.66 6 2.32 6 3 C3.69 3 1.38 3 -1 3 C-0.67 2.01 -0.34 1.02 0 0 Z " fill="#91C059" transform="translate(450,140)"/>
<path d="M0 0 C1.485 0.99 1.485 0.99 3 2 C3 2.66 3 3.32 3 4 C3.99 4.33 4.98 4.66 6 5 C2.25 6.125 2.25 6.125 0 5 C0 3.35 0 1.7 0 0 Z " fill="#AED18A" transform="translate(201,137)"/>
<path d="M0 0 C1.65 1.65 3.3 3.3 5 5 C3.35 5.33 1.7 5.66 0 6 C-1.24546405 3.50907189 -0.7767578 2.58919267 0 0 Z " fill="#9BC56B" transform="translate(475,37)"/>
<path d="M0 0 C0 3 0 3 -2 6 C-4.625 6.6875 -4.625 6.6875 -7 7 C-6.67 6.34 -6.34 5.68 -6 5 C-5.34 5 -4.68 5 -4 5 C-4 4.34 -4 3.68 -4 3 C-2 1.375 -2 1.375 0 0 Z " fill="#A0C87C" transform="translate(213,36)"/>
</svg>
